<svg xmlns="http://www.w3.org/2000/svg" xmlns:xlink="http://www.w3.org/1999/xlink" viewBox="0 0 1015.97 1015.97"><defs><style>.cls-1{fill:url(#linear-gradient);}.cls-2{fill:url(#linear-gradient-2);}.cls-3{fill:url(#linear-gradient-3);}.cls-4{fill:url(#linear-gradient-4);}.cls-5{fill:url(#linear-gradient-5);}.cls-6{fill:url(#linear-gradient-6);}.cls-7{fill:url(#linear-gradient-7);}.cls-8{fill:url(#linear-gradient-8);}.cls-9{fill:url(#linear-gradient-9);}.cls-10{fill:url(#linear-gradient-10);}.cls-11{fill:url(#linear-gradient-11);}.cls-12{fill:url(#linear-gradient-12);}.cls-13{fill:url(#linear-gradient-13);}.cls-14{fill:url(#linear-gradient-14);}.cls-15{fill:url(#linear-gradient-15);}.cls-16{fill:url(#linear-gradient-16);}.cls-17{fill:url(#linear-gradient-17);}.cls-18{fill:url(#linear-gradient-18);}.cls-19{fill:url(#linear-gradient-19);}.cls-20{fill:url(#linear-gradient-20);}.cls-21{fill:url(#linear-gradient-21);}.cls-22{fill:url(#linear-gradient-22);}.cls-23{fill:url(#linear-gradient-23);}.cls-24{fill:url(#linear-gradient-24);}.cls-25{fill:url(#linear-gradient-25);}.cls-26{fill:url(#linear-gradient-26);}.cls-27{fill:url(#linear-gradient-27);}.cls-28{fill:url(#linear-gradient-28);}.cls-29{fill:url(#linear-gradient-29);}.cls-30{fill:url(#linear-gradient-30);}.cls-31{fill:url(#linear-gradient-31);}.cls-32{fill:url(#linear-gradient-32);}.cls-33{fill:url(#linear-gradient-33);}.cls-34{fill:url(#linear-gradient-34);}.cls-35{fill:url(#linear-gradient-35);}.cls-36{fill:url(#linear-gradient-36);}.cls-37{fill:url(#linear-gradient-37);}.cls-38{fill:url(#linear-gradient-38);}.cls-39{fill:url(#linear-gradient-39);}.cls-40{fill:url(#linear-gradient-40);}.cls-41{fill:url(#linear-gradient-41);}.cls-42{fill:url(#linear-gradient-42);}.cls-43{fill:url(#linear-gradient-43);}.cls-44{fill:url(#linear-gradient-44);}.cls-45{fill:url(#linear-gradient-45);}.cls-46{fill:url(#linear-gradient-46);}.cls-47{fill:url(#linear-gradient-47);}.cls-48{fill:url(#linear-gradient-48);}.cls-49{fill:url(#linear-gradient-49);}.cls-50{fill:url(#linear-gradient-50);}.cls-51{fill:url(#linear-gradient-51);}.cls-52{fill:url(#linear-gradient-52);}.cls-53{fill:url(#linear-gradient-53);}.cls-54{fill:url(#linear-gradient-54);}.cls-55{fill:url(#linear-gradient-55);}.cls-56{fill:url(#linear-gradient-56);}.cls-57{fill:url(#linear-gradient-57);}.cls-58{fill:url(#linear-gradient-58);}.cls-59{fill:url(#linear-gradient-59);}.cls-60{fill:url(#linear-gradient-60);}.cls-61{fill:url(#linear-gradient-61);}.cls-62{fill:url(#linear-gradient-62);}.cls-63{fill:url(#linear-gradient-63);}.cls-64{fill:url(#linear-gradient-64);}.cls-65{fill:url(#linear-gradient-65);}.cls-66{fill:url(#linear-gradient-66);}.cls-67{fill:url(#linear-gradient-67);}.cls-68{fill:url(#linear-gradient-68);}.cls-69{fill:url(#linear-gradient-69);}.cls-70{fill:url(#linear-gradient-70);}.cls-71{fill:url(#linear-gradient-71);}.cls-72{fill:url(#linear-gradient-72);}.cls-73{fill:url(#linear-gradient-73);}.cls-74{fill:url(#linear-gradient-74);}.cls-75{fill:url(#linear-gradient-75);}.cls-76{fill:url(#linear-gradient-76);}.cls-77{fill:url(#linear-gradient-77);}.cls-78{fill:url(#linear-gradient-78);}.cls-79{fill:url(#linear-gradient-79);}.cls-80{fill:url(#linear-gradient-80);}.cls-81{fill:url(#linear-gradient-81);}.cls-82{fill:url(#linear-gradient-82);}.cls-83{fill:url(#linear-gradient-83);}.cls-84{fill:url(#linear-gradient-84);}.cls-85{fill:url(#linear-gradient-85);}.cls-86{fill:url(#linear-gradient-86);}.cls-87{fill:url(#linear-gradient-87);}.cls-88{fill:url(#linear-gradient-88);}.cls-89{fill:url(#linear-gradient-89);}.cls-90{fill:url(#linear-gradient-90);}.cls-91{fill:url(#linear-gradient-91);}.cls-92{fill:url(#linear-gradient-92);}.cls-93{fill:url(#linear-gradient-93);}.cls-94{fill:url(#linear-gradient-94);}.cls-95{fill:url(#linear-gradient-95);}.cls-96{fill:url(#linear-gradient-96);}.cls-97{fill:url(#linear-gradient-97);}.cls-98{fill:url(#linear-gradient-98);}.cls-99{fill:url(#linear-gradient-99);}.cls-100{fill:url(#linear-gradient-100);}.cls-101{fill:url(#linear-gradient-101);}.cls-102{fill:url(#linear-gradient-102);}.cls-103{fill:url(#linear-gradient-103);}.cls-104{fill:url(#linear-gradient-104);}.cls-105{fill:url(#linear-gradient-105);}.cls-106{fill:url(#linear-gradient-106);}.cls-107{fill:url(#linear-gradient-107);}.cls-108{fill:url(#linear-gradient-108);}.cls-109{fill:url(#linear-gradient-109);}.cls-110{fill:url(#linear-gradient-110);}.cls-111{fill:url(#linear-gradient-111);}.cls-112{fill:url(#linear-gradient-112);}.cls-113{fill:url(#linear-gradient-113);}.cls-114{fill:url(#linear-gradient-114);}.cls-115{fill:url(#linear-gradient-115);}.cls-116{fill:url(#linear-gradient-116);}.cls-117{fill:url(#linear-gradient-117);}.cls-118{fill:url(#linear-gradient-118);}.cls-119{fill:url(#linear-gradient-119);}.cls-120{fill:url(#linear-gradient-120);}.cls-121{fill:url(#linear-gradient-121);}.cls-122{fill:url(#linear-gradient-122);}.cls-123{fill:url(#linear-gradient-123);}.cls-124{fill:url(#linear-gradient-124);}.cls-125{fill:url(#linear-gradient-125);}.cls-126{fill:url(#linear-gradient-126);}.cls-127{fill:url(#linear-gradient-127);}.cls-128{fill:url(#linear-gradient-128);}.cls-129{fill:url(#linear-gradient-129);}.cls-130{fill:url(#linear-gradient-130);}.cls-131{fill:url(#linear-gradient-131);}.cls-132{fill:url(#linear-gradient-132);}.cls-133{fill:url(#linear-gradient-133);}.cls-134{fill:url(#linear-gradient-134);}.cls-135{fill:url(#linear-gradient-135);}.cls-136{fill:url(#linear-gradient-136);}.cls-137{fill:url(#linear-gradient-137);}.cls-138{fill:url(#linear-gradient-138);}.cls-139{fill:url(#linear-gradient-139);}.cls-140{fill:url(#linear-gradient-140);}.cls-141{fill:url(#linear-gradient-141);}.cls-142{fill:url(#linear-gradient-142);}.cls-143{fill:url(#linear-gradient-143);}.cls-144{fill:url(#linear-gradient-144);}.cls-145{fill:url(#linear-gradient-145);}.cls-146{fill:url(#linear-gradient-146);}.cls-147{fill:url(#linear-gradient-147);}.cls-148{fill:url(#linear-gradient-148);}.cls-149{fill:url(#linear-gradient-149);}.cls-150{fill:url(#linear-gradient-150);}.cls-151{fill:url(#linear-gradient-151);}.cls-152{fill:url(#linear-gradient-152);}.cls-153{fill:url(#linear-gradient-153);}.cls-154{fill:url(#linear-gradient-154);}.cls-155{fill:url(#linear-gradient-155);}.cls-156{fill:url(#linear-gradient-156);}.cls-157{fill:url(#linear-gradient-157);}.cls-158{fill:url(#linear-gradient-158);}.cls-159{fill:url(#linear-gradient-159);}.cls-160{fill:url(#linear-gradient-160);}.cls-161{fill:url(#linear-gradient-161);}.cls-162{fill:url(#linear-gradient-162);}.cls-163{fill:url(#linear-gradient-163);}.cls-164{fill:url(#linear-gradient-164);}.cls-165{fill:url(#linear-gradient-165);}.cls-166{fill:url(#linear-gradient-166);}.cls-167{fill:url(#linear-gradient-167);}.cls-168{fill:url(#linear-gradient-168);}.cls-169{fill:url(#linear-gradient-169);}.cls-170{fill:url(#linear-gradient-170);}.cls-171{fill:url(#linear-gradient-171);}.cls-172{fill:url(#linear-gradient-172);}.cls-173{fill:url(#linear-gradient-173);}.cls-174{fill:url(#linear-gradient-174);}.cls-175{fill:url(#linear-gradient-175);}.cls-176{fill:url(#linear-gradient-176);}.cls-177{fill:url(#linear-gradient-177);}.cls-178{fill:url(#linear-gradient-178);}.cls-179{fill:url(#linear-gradient-179);}.cls-180{fill:url(#linear-gradient-180);}.cls-181{fill:url(#linear-gradient-181);}.cls-182{fill:url(#linear-gradient-182);}.cls-183{fill:url(#linear-gradient-183);}.cls-184{fill:url(#linear-gradient-184);}.cls-185{fill:url(#linear-gradient-185);}.cls-186{fill:url(#linear-gradient-186);}.cls-187{fill:url(#linear-gradient-187);}.cls-188{fill:url(#linear-gradient-188);}.cls-189{fill:url(#linear-gradient-189);}.cls-190{fill:url(#linear-gradient-190);}.cls-191{fill:url(#linear-gradient-191);}.cls-192{fill:url(#linear-gradient-192);}</style><linearGradient id="linear-gradient" x1="53.48" y1="507.98" x2="1062.12" y2="507.98" gradientUnits="userSpaceOnUse"><stop offset="0" stop-color="#db9125"/><stop offset="0" stop-color="#dc9327"/><stop offset="0.04" stop-color="#e8b744"/><stop offset="0.08" stop-color="#f2d35b"/><stop offset="0.12" stop-color="#f9e76b"/><stop offset="0.16" stop-color="#fef375"/><stop offset="0.2" stop-color="#fff778"/><stop offset="0.28" stop-color="#eac34a"/><stop offset="0.34" stop-color="#d99a26"/><stop offset="0.36" stop-color="#cb8e24"/><stop offset="0.4" stop-color="#b77e21"/><stop offset="0.43" stop-color="#ab741f"/><stop offset="0.47" stop-color="#a7711e"/><stop offset="0.51" stop-color="#ab7622"/><stop offset="0.56" stop-color="#b8852e"/><stop offset="0.61" stop-color="#cd9e42"/><stop offset="0.66" stop-color="#ebc15e"/><stop offset="0.68" stop-color="#f6ce69"/><stop offset="0.72" stop-color="#f3c962"/><stop offset="0.78" stop-color="#ebba4f"/><stop offset="0.85" stop-color="#dea231"/><stop offset="0.87" stop-color="#d99a26"/><stop offset="1" stop-color="#f6ce69"/></linearGradient><linearGradient id="linear-gradient-2" x1="316.99" y1="315.67" x2="504.24" y2="315.67" xlink:href="#linear-gradient"/><linearGradient id="linear-gradient-3" x1="313.3" y1="638.04" x2="465.43" y2="638.04" xlink:href="#linear-gradient"/><linearGradient id="linear-gradient-4" x1="4108.25" y1="-1942.27" x2="4665.86" y2="-1942.27" gradientTransform="translate(2451.29 4901.06) rotate(-90)" xlink:href="#linear-gradient"/><linearGradient id="linear-gradient-5" x1="514.08" y1="403.38" x2="681.43" y2="403.38" xlink:href="#linear-gradient"/><linearGradient id="linear-gradient-6" x1="565.57" y1="630.78" x2="690.95" y2="630.78" xlink:href="#linear-gradient"/><linearGradient id="linear-gradient-7" x1="4641.98" y1="-1901.55" x2="4705.36" y2="-1880.29" gradientTransform="translate(2451.29 4901.06) rotate(-90)" xlink:href="#linear-gradient"/><linearGradient id="linear-gradient-8" x1="552.61" y1="644.1" x2="699.46" y2="644.1" xlink:href="#linear-gradient"/><linearGradient id="linear-gradient-9" x1="613.75" y1="199.91" x2="613.75" y2="409" xlink:href="#linear-gradient"/><linearGradient id="linear-gradient-10" x1="261.4" y1="311.09" x2="439.55" y2="311.09" xlink:href="#linear-gradient"/><linearGradient id="linear-gradient-11" x1="245.12" y1="611.85" x2="755.34" y2="611.85" xlink:href="#linear-gradient"/><linearGradient id="linear-gradient-12" x1="578.49" y1="385.43" x2="772.92" y2="385.43" xlink:href="#linear-gradient"/><linearGradient id="linear-gradient-13" x1="300.56" y1="645.25" x2="478.34" y2="645.25" xlink:href="#linear-gradient"/><linearGradient id="linear-gradient-14" x1="272.18" y1="649.05" x2="504.21" y2="649.05" xlink:href="#linear-gradient"/><linearGradient id="linear-gradient-15" x1="285.99" y1="647.43" x2="491.27" y2="647.43" xlink:href="#linear-gradient"/><linearGradient id="linear-gradient-16" x1="308.59" y1="310.8" x2="491.3" y2="310.8" xlink:href="#linear-gradient"/><linearGradient id="linear-gradient-17" x1="298.1" y1="307.34" x2="478.37" y2="307.34" xlink:href="#linear-gradient"/><linearGradient id="linear-gradient-18" x1="286.11" y1="308.14" x2="465.43" y2="308.14" xlink:href="#linear-gradient"/><linearGradient id="linear-gradient-19" x1="4637.61" y1="-1942.64" x2="4717.17" y2="-1915.95" gradientTransform="translate(2451.29 4901.06) rotate(-90)" xlink:href="#linear-gradient"/><linearGradient id="linear-gradient-20" x1="4637.65" y1="-1916.3" x2="4709.83" y2="-1892.09" gradientTransform="translate(2451.29 4901.06) rotate(-90)" xlink:href="#linear-gradient"/><linearGradient id="linear-gradient-21" x1="4636.76" y1="-1929.81" x2="4713.7" y2="-1904" gradientTransform="translate(2451.29 4901.06) rotate(-90)" xlink:href="#linear-gradient"/><linearGradient id="linear-gradient-22" x1="539.7" y1="652.96" x2="707.89" y2="652.96" xlink:href="#linear-gradient"/><linearGradient id="linear-gradient-23" x1="526.76" y1="655.12" x2="718.34" y2="655.12" xlink:href="#linear-gradient"/><linearGradient id="linear-gradient-24" x1="513.84" y1="654.83" x2="730.72" y2="654.83" xlink:href="#linear-gradient"/><linearGradient id="linear-gradient-25" x1="516.12" y1="339.25" x2="723.74" y2="339.25" xlink:href="#linear-gradient"/><linearGradient id="linear-gradient-26" x1="539.68" y1="344.68" x2="738.42" y2="344.68" xlink:href="#linear-gradient"/><linearGradient id="linear-gradient-27" x1="552.61" y1="350.39" x2="749.97" y2="350.39" xlink:href="#linear-gradient"/><linearGradient id="linear-gradient-28" x1="315.12" y1="605.33" x2="453.09" y2="605.33" xlink:href="#linear-gradient"/><linearGradient id="linear-gradient-29" x1="311.13" y1="373.5" x2="502.11" y2="378.61" xlink:href="#linear-gradient"/><linearGradient id="linear-gradient-30" x1="273.9" y1="309.73" x2="452.49" y2="309.73" xlink:href="#linear-gradient"/><linearGradient id="linear-gradient-31" x1="256.55" y1="611.5" x2="743.05" y2="611.5" xlink:href="#linear-gradient"/><linearGradient id="linear-gradient-32" x1="565.55" y1="378.87" x2="761.49" y2="378.87" xlink:href="#linear-gradient"/><linearGradient id="linear-gradient-33" x1="869.02" y1="146.95" x2="162.59" y2="853.38" xlink:href="#linear-gradient"/><linearGradient id="linear-gradient-34" x1="366.87" y1="179.19" x2="661.71" y2="867.16" xlink:href="#linear-gradient"/><linearGradient id="linear-gradient-35" x1="111.13" y1="507.98" x2="904.84" y2="507.98" xlink:href="#linear-gradient"/><linearGradient id="linear-gradient-36" x1="194.96" y1="652.9" x2="806.54" y2="369.46" xlink:href="#linear-gradient"/><linearGradient id="linear-gradient-37" x1="195.05" y1="653.08" x2="807.19" y2="369.37" xlink:href="#linear-gradient"/><linearGradient id="linear-gradient-38" x1="270.21" y1="815.25" x2="882.36" y2="531.54" xlink:href="#linear-gradient"/><linearGradient id="linear-gradient-39" x1="-3.84" y1="537.78" x2="557.19" y2="20.21" xlink:href="#linear-gradient"/><linearGradient id="linear-gradient-40" x1="-22.89" y1="517.14" x2="538.14" y2="-0.44" xlink:href="#linear-gradient"/><linearGradient id="linear-gradient-41" x1="-30.76" y1="508.6" x2="530.27" y2="-8.98" xlink:href="#linear-gradient"/><linearGradient id="linear-gradient-42" x1="25.57" y1="569.66" x2="586.6" y2="52.08" xlink:href="#linear-gradient"/><linearGradient id="linear-gradient-43" x1="-27.11" y1="512.56" x2="533.92" y2="-5.02" xlink:href="#linear-gradient"/><linearGradient id="linear-gradient-44" x1="266.16" y1="830.45" x2="827.19" y2="312.87" xlink:href="#linear-gradient"/><linearGradient id="linear-gradient-45" x1="63.86" y1="611.16" x2="624.89" y2="93.58" xlink:href="#linear-gradient"/><linearGradient id="linear-gradient-46" x1="-12.09" y1="528.84" x2="548.93" y2="11.26" xlink:href="#linear-gradient"/><linearGradient id="linear-gradient-47" x1="212.87" y1="772.68" x2="773.9" y2="255.11" xlink:href="#linear-gradient"/><linearGradient id="linear-gradient-48" x1="109.28" y1="660.4" x2="670.31" y2="142.82" xlink:href="#linear-gradient"/><linearGradient id="linear-gradient-49" x1="159.75" y1="715.11" x2="720.78" y2="197.53" xlink:href="#linear-gradient"/><linearGradient id="linear-gradient-50" x1="317.13" y1="885.7" x2="878.16" y2="368.12" xlink:href="#linear-gradient"/><linearGradient id="linear-gradient-51" x1="13.66" y1="556.75" x2="574.69" y2="39.18" xlink:href="#linear-gradient"/><linearGradient id="linear-gradient-52" x1="423.42" y1="1000.91" x2="984.45" y2="483.33" xlink:href="#linear-gradient"/><linearGradient id="linear-gradient-53" x1="461.52" y1="1042.21" x2="1022.55" y2="524.63" xlink:href="#linear-gradient"/><linearGradient id="linear-gradient-54" x1="447.89" y1="1027.44" x2="1008.92" y2="509.86" xlink:href="#linear-gradient"/><linearGradient id="linear-gradient-55" x1="434.08" y1="1012.46" x2="995.1" y2="494.88" xlink:href="#linear-gradient"/><linearGradient id="linear-gradient-56" x1="454.48" y1="1034.58" x2="1015.51" y2="517" xlink:href="#linear-gradient"/><linearGradient id="linear-gradient-57" x1="463.74" y1="1044.62" x2="1024.77" y2="527.04" xlink:href="#linear-gradient"/><linearGradient id="linear-gradient-58" x1="389.27" y1="963.89" x2="950.3" y2="446.31" xlink:href="#linear-gradient"/><linearGradient id="linear-gradient-59" x1="91.91" y1="641.57" x2="652.94" y2="123.99" xlink:href="#linear-gradient"/><linearGradient id="linear-gradient-60" x1="347.11" y1="918.2" x2="908.14" y2="400.62" xlink:href="#linear-gradient"/><linearGradient id="linear-gradient-61" x1="140.78" y1="694.54" x2="701.81" y2="176.96" xlink:href="#linear-gradient"/><linearGradient id="linear-gradient-62" x1="48.89" y1="594.94" x2="609.92" y2="77.36" xlink:href="#linear-gradient"/><linearGradient id="linear-gradient-63" x1="298.84" y1="865.87" x2="859.87" y2="348.29" xlink:href="#linear-gradient"/><linearGradient id="linear-gradient-64" x1="193.19" y1="751.36" x2="754.22" y2="233.78" xlink:href="#linear-gradient"/><linearGradient id="linear-gradient-65" x1="246.71" y1="809.36" x2="807.74" y2="291.79" xlink:href="#linear-gradient"/><linearGradient id="linear-gradient-66" x1="192.89" y1="653.78" x2="808.7" y2="368.37" xlink:href="#linear-gradient"/><linearGradient id="linear-gradient-67" x1="253.54" y1="507.98" x2="762.42" y2="507.98" xlink:href="#linear-gradient"/><linearGradient id="linear-gradient-68" x1="502.99" y1="404.94" x2="502.99" y2="464.7" xlink:href="#linear-gradient"/><linearGradient id="linear-gradient-69" x1="515.57" y1="404.94" x2="515.57" y2="464.7" xlink:href="#linear-gradient"/><linearGradient id="linear-gradient-70" x1="490.03" y1="213.37" x2="487.99" y2="304.26" xlink:href="#linear-gradient"/><linearGradient id="linear-gradient-71" x1="503.39" y1="213.67" x2="501.35" y2="304.56" gradientTransform="translate(1005.76 472.95) rotate(-180)" xlink:href="#linear-gradient"/><linearGradient id="linear-gradient-72" x1="516.14" y1="213.95" x2="514.1" y2="304.85" xlink:href="#linear-gradient"/><linearGradient id="linear-gradient-73" x1="528.89" y1="214.24" x2="526.85" y2="305.13" xlink:href="#linear-gradient"/><linearGradient id="linear-gradient-74" x1="527.26" y1="402.58" x2="691.36" y2="402.58" xlink:href="#linear-gradient"/><linearGradient id="linear-gradient-75" x1="578.5" y1="616.17" x2="682.23" y2="616.17" xlink:href="#linear-gradient"/><linearGradient id="linear-gradient-76" x1="2110.13" y1="3550.95" x2="2367.76" y2="3418.64" gradientTransform="translate(-1623.39 -3162.57)" xlink:href="#linear-gradient"/><linearGradient id="linear-gradient-77" x1="2118.21" y1="3566.68" x2="2375.84" y2="3434.37" gradientTransform="translate(-1647.54 -3169.16)" xlink:href="#linear-gradient"/><linearGradient id="linear-gradient-78" x1="2126.33" y1="3582.5" x2="2383.96" y2="3450.19" gradientTransform="translate(-1671.92 -3175.51)" xlink:href="#linear-gradient"/><linearGradient id="linear-gradient-79" x1="327.88" y1="602.73" x2="439.54" y2="602.73" xlink:href="#linear-gradient"/><linearGradient id="linear-gradient-80" x1="334.35" y1="387.39" x2="490.54" y2="387.39" xlink:href="#linear-gradient"/><linearGradient id="linear-gradient-81" x1="2110.13" y1="-1202.17" x2="2367.76" y2="-1334.48" gradientTransform="matrix(1, 0, 0, -1, -1725.29, -888.88)" xlink:href="#linear-gradient"/><linearGradient id="linear-gradient-82" x1="2118.21" y1="-1186.44" x2="2375.84" y2="-1318.75" gradientTransform="matrix(1, 0, 0, -1, -1718.7, -864.73)" xlink:href="#linear-gradient"/><linearGradient id="linear-gradient-83" x1="2126.33" y1="-1170.62" x2="2383.96" y2="-1302.93" gradientTransform="matrix(1, 0, 0, -1, -1712.36, -840.35)" xlink:href="#linear-gradient"/><linearGradient id="linear-gradient-84" x1="5406.47" y1="368.06" x2="5664.1" y2="235.75" gradientTransform="matrix(1, 0, 0, -1, -5195.18, 868.41)" xlink:href="#linear-gradient"/><linearGradient id="linear-gradient-85" x1="5410.3" y1="351.46" x2="5667.93" y2="219.15" gradientTransform="matrix(1, 0, 0, -1, -5202.84, 835.22)" xlink:href="#linear-gradient"/><linearGradient id="linear-gradient-86" x1="5412.6" y1="334.86" x2="5670.23" y2="202.56" gradientTransform="matrix(1, 0, 0, -1, -5207.43, 802.03)" xlink:href="#linear-gradient"/><linearGradient id="linear-gradient-87" x1="4954.04" y1="338.64" x2="5211.67" y2="206.33" gradientTransform="matrix(1, 0, 0, -1, -4290.32, 809.58)" xlink:href="#linear-gradient"/><linearGradient id="linear-gradient-88" x1="677.94" y1="-17.06" x2="-60.2" y2="721.09" xlink:href="#linear-gradient"/><linearGradient id="linear-gradient-89" x1="697.08" y1="2.08" x2="-41.07" y2="740.22" xlink:href="#linear-gradient"/><linearGradient id="linear-gradient-90" x1="715.43" y1="20.43" x2="-22.72" y2="758.57" xlink:href="#linear-gradient"/><linearGradient id="linear-gradient-91" x1="732.58" y1="37.58" x2="-5.57" y2="775.72" xlink:href="#linear-gradient"/><linearGradient id="linear-gradient-92" x1="750.79" y1="55.78" x2="12.64" y2="793.93" xlink:href="#linear-gradient"/><linearGradient id="linear-gradient-93" x1="768.21" y1="73.21" x2="30.07" y2="811.36" xlink:href="#linear-gradient"/><linearGradient id="linear-gradient-94" x1="788.6" y1="93.6" x2="50.45" y2="831.74" xlink:href="#linear-gradient"/><linearGradient id="linear-gradient-95" x1="807.77" y1="112.77" x2="69.62" y2="850.92" xlink:href="#linear-gradient"/><linearGradient id="linear-gradient-96" x1="825.2" y1="130.2" x2="87.05" y2="868.34" xlink:href="#linear-gradient"/><linearGradient id="linear-gradient-97" x1="842.79" y1="147.78" x2="104.64" y2="885.93" xlink:href="#linear-gradient"/><linearGradient id="linear-gradient-98" x1="860.85" y1="165.85" x2="122.71" y2="904" xlink:href="#linear-gradient"/><linearGradient id="linear-gradient-99" x1="879.24" y1="184.24" x2="141.1" y2="922.39" xlink:href="#linear-gradient"/><linearGradient id="linear-gradient-100" x1="895.65" y1="200.65" x2="157.51" y2="938.8" xlink:href="#linear-gradient"/><linearGradient id="linear-gradient-101" x1="912.47" y1="217.47" x2="174.32" y2="955.61" xlink:href="#linear-gradient"/><linearGradient id="linear-gradient-102" x1="930.03" y1="235.02" x2="191.88" y2="973.17" xlink:href="#linear-gradient"/><linearGradient id="linear-gradient-103" x1="942.13" y1="247.12" x2="203.98" y2="985.27" xlink:href="#linear-gradient"/><linearGradient id="linear-gradient-104" x1="954.07" y1="259.07" x2="215.92" y2="997.22" xlink:href="#linear-gradient"/><linearGradient id="linear-gradient-105" x1="970.06" y1="275.06" x2="231.91" y2="1013.2" xlink:href="#linear-gradient"/><linearGradient id="linear-gradient-106" x1="986" y1="291" x2="247.85" y2="1029.14" xlink:href="#linear-gradient"/><linearGradient id="linear-gradient-107" x1="1010.22" y1="315.22" x2="272.07" y2="1053.37" xlink:href="#linear-gradient"/><linearGradient id="linear-gradient-108" x1="1023.51" y1="328.51" x2="285.37" y2="1066.66" xlink:href="#linear-gradient"/><linearGradient id="linear-gradient-109" x1="1035.47" y1="340.47" x2="297.33" y2="1078.62" xlink:href="#linear-gradient"/><linearGradient id="linear-gradient-110" x1="1045.61" y1="350.61" x2="307.46" y2="1088.76" xlink:href="#linear-gradient"/><linearGradient id="linear-gradient-111" x1="1056.71" y1="361.71" x2="318.56" y2="1099.85" xlink:href="#linear-gradient"/><linearGradient id="linear-gradient-112" x1="1063.85" y1="368.85" x2="325.71" y2="1107" xlink:href="#linear-gradient"/><linearGradient id="linear-gradient-113" x1="1076.26" y1="381.26" x2="338.11" y2="1119.4" xlink:href="#linear-gradient"/><linearGradient id="linear-gradient-114" x1="1094.62" y1="399.62" x2="356.47" y2="1137.76" xlink:href="#linear-gradient"/><linearGradient id="linear-gradient-115" x1="1106.19" y1="411.19" x2="368.04" y2="1149.33" xlink:href="#linear-gradient"/><linearGradient id="linear-gradient-116" x1="1114.15" y1="419.15" x2="376" y2="1157.29" xlink:href="#linear-gradient"/><linearGradient id="linear-gradient-117" x1="1123" y1="428" x2="384.86" y2="1166.15" xlink:href="#linear-gradient"/><linearGradient id="linear-gradient-118" x1="1131.52" y1="436.51" x2="393.37" y2="1174.66" xlink:href="#linear-gradient"/><linearGradient id="linear-gradient-119" x1="1138.24" y1="443.24" x2="400.09" y2="1181.38" xlink:href="#linear-gradient"/><linearGradient id="linear-gradient-120" x1="1144.57" y1="449.57" x2="406.43" y2="1187.72" xlink:href="#linear-gradient"/><linearGradient id="linear-gradient-121" x1="1149.33" y1="454.33" x2="411.19" y2="1192.48" xlink:href="#linear-gradient"/><linearGradient id="linear-gradient-122" x1="1150.67" y1="455.67" x2="412.52" y2="1193.81" xlink:href="#linear-gradient"/><linearGradient id="linear-gradient-123" x1="1155.28" y1="460.27" x2="417.13" y2="1198.42" xlink:href="#linear-gradient"/><linearGradient id="linear-gradient-124" x1="1156.03" y1="461.03" x2="417.88" y2="1199.17" xlink:href="#linear-gradient"/><linearGradient id="linear-gradient-125" x1="1155.79" y1="460.79" x2="417.65" y2="1198.94" xlink:href="#linear-gradient"/><linearGradient id="linear-gradient-126" x1="1154.32" y1="459.32" x2="416.17" y2="1197.46" xlink:href="#linear-gradient"/><linearGradient id="linear-gradient-127" x1="1151.47" y1="456.46" x2="413.32" y2="1194.61" xlink:href="#linear-gradient"/><linearGradient id="linear-gradient-128" x1="1146.22" y1="451.22" x2="408.08" y2="1189.37" xlink:href="#linear-gradient"/><linearGradient id="linear-gradient-129" x1="1143.04" y1="448.04" x2="404.9" y2="1186.19" xlink:href="#linear-gradient"/><linearGradient id="linear-gradient-130" x1="1135.67" y1="440.67" x2="397.53" y2="1178.82" xlink:href="#linear-gradient"/><linearGradient id="linear-gradient-131" x1="1128.46" y1="433.46" x2="390.31" y2="1171.6" xlink:href="#linear-gradient"/><linearGradient id="linear-gradient-132" x1="1121" y1="426" x2="382.86" y2="1164.15" xlink:href="#linear-gradient"/><linearGradient id="linear-gradient-133" x1="1112.02" y1="417.02" x2="373.88" y2="1155.17" xlink:href="#linear-gradient"/><linearGradient id="linear-gradient-134" x1="1103.82" y1="408.81" x2="365.67" y2="1146.96" xlink:href="#linear-gradient"/><linearGradient id="linear-gradient-135" x1="1091.74" y1="396.74" x2="353.6" y2="1134.89" xlink:href="#linear-gradient"/><linearGradient id="linear-gradient-136" x1="1077.48" y1="382.48" x2="339.33" y2="1120.62" xlink:href="#linear-gradient"/><linearGradient id="linear-gradient-137" x1="1067.76" y1="372.75" x2="329.61" y2="1110.9" xlink:href="#linear-gradient"/><linearGradient id="linear-gradient-138" x1="1059.86" y1="364.86" x2="321.71" y2="1103" xlink:href="#linear-gradient"/><linearGradient id="linear-gradient-139" x1="1050.27" y1="355.27" x2="312.13" y2="1093.42" xlink:href="#linear-gradient"/><linearGradient id="linear-gradient-140" x1="1037.05" y1="342.05" x2="298.91" y2="1080.2" xlink:href="#linear-gradient"/><linearGradient id="linear-gradient-141" x1="1023.33" y1="328.33" x2="285.19" y2="1066.48" xlink:href="#linear-gradient"/><linearGradient id="linear-gradient-142" x1="999.35" y1="304.35" x2="261.2" y2="1042.5" xlink:href="#linear-gradient"/><linearGradient id="linear-gradient-143" x1="985.43" y1="290.43" x2="247.29" y2="1028.58" xlink:href="#linear-gradient"/><linearGradient id="linear-gradient-144" x1="972.25" y1="277.25" x2="234.11" y2="1015.4" xlink:href="#linear-gradient"/><linearGradient id="linear-gradient-145" x1="960.07" y1="265.07" x2="221.93" y2="1003.22" xlink:href="#linear-gradient"/><linearGradient id="linear-gradient-146" x1="951.04" y1="256.04" x2="212.89" y2="994.18" xlink:href="#linear-gradient"/><linearGradient id="linear-gradient-147" x1="930.84" y1="235.84" x2="192.69" y2="973.99" xlink:href="#linear-gradient"/><linearGradient id="linear-gradient-148" x1="915.44" y1="220.44" x2="177.29" y2="958.59" xlink:href="#linear-gradient"/><linearGradient id="linear-gradient-149" x1="892.34" y1="197.34" x2="154.2" y2="935.49" xlink:href="#linear-gradient"/><linearGradient id="linear-gradient-150" x1="874.16" y1="179.16" x2="136.01" y2="917.3" xlink:href="#linear-gradient"/><linearGradient id="linear-gradient-151" x1="854.25" y1="159.25" x2="116.1" y2="897.39" xlink:href="#linear-gradient"/><linearGradient id="linear-gradient-152" x1="836.17" y1="141.17" x2="98.03" y2="879.32" xlink:href="#linear-gradient"/><linearGradient id="linear-gradient-153" x1="818.6" y1="123.6" x2="80.46" y2="861.75" xlink:href="#linear-gradient"/><linearGradient id="linear-gradient-154" x1="800.57" y1="105.57" x2="62.43" y2="843.72" xlink:href="#linear-gradient"/><linearGradient id="linear-gradient-155" x1="780.99" y1="85.99" x2="42.84" y2="824.13" xlink:href="#linear-gradient"/><linearGradient id="linear-gradient-156" x1="762.27" y1="67.27" x2="24.12" y2="805.42" xlink:href="#linear-gradient"/><linearGradient id="linear-gradient-157" x1="753.97" y1="58.97" x2="15.82" y2="797.12" xlink:href="#linear-gradient"/><linearGradient id="linear-gradient-158" x1="730.54" y1="35.54" x2="-7.61" y2="773.68" xlink:href="#linear-gradient"/><linearGradient id="linear-gradient-159" x1="716.53" y1="21.52" x2="-21.62" y2="759.67" xlink:href="#linear-gradient"/><linearGradient id="linear-gradient-160" x1="698.13" y1="3.13" x2="-40.02" y2="741.27" xlink:href="#linear-gradient"/><linearGradient id="linear-gradient-161" x1="685.75" y1="-9.25" x2="-52.39" y2="728.9" xlink:href="#linear-gradient"/><linearGradient id="linear-gradient-162" x1="672.15" y1="-22.85" x2="-66" y2="715.29" xlink:href="#linear-gradient"/><linearGradient id="linear-gradient-163" x1="654.17" y1="-40.83" x2="-83.97" y2="697.32" xlink:href="#linear-gradient"/><linearGradient id="linear-gradient-164" x1="638.75" y1="-56.25" x2="-99.39" y2="681.9" xlink:href="#linear-gradient"/><linearGradient id="linear-gradient-165" x1="624.69" y1="-70.31" x2="-113.46" y2="667.83" xlink:href="#linear-gradient"/><linearGradient id="linear-gradient-166" x1="613.23" y1="-81.78" x2="-124.92" y2="656.37" xlink:href="#linear-gradient"/><linearGradient id="linear-gradient-167" x1="603.76" y1="-91.24" x2="-134.39" y2="646.91" xlink:href="#linear-gradient"/><linearGradient id="linear-gradient-168" x1="594.25" y1="-100.75" x2="-143.89" y2="637.4" xlink:href="#linear-gradient"/><linearGradient id="linear-gradient-169" x1="584.66" y1="-110.34" x2="-153.49" y2="627.8" xlink:href="#linear-gradient"/><linearGradient id="linear-gradient-170" x1="579.67" y1="-115.33" x2="-158.47" y2="622.82" xlink:href="#linear-gradient"/><linearGradient id="linear-gradient-171" x1="573.31" y1="-121.69" x2="-164.83" y2="616.46" xlink:href="#linear-gradient"/><linearGradient id="linear-gradient-172" x1="567.76" y1="-127.24" x2="-170.39" y2="610.9" xlink:href="#linear-gradient"/><linearGradient id="linear-gradient-173" x1="563.8" y1="-131.2" x2="-174.34" y2="606.95" xlink:href="#linear-gradient"/><linearGradient id="linear-gradient-174" x1="561.06" y1="-133.94" x2="-177.09" y2="604.2" xlink:href="#linear-gradient"/><linearGradient id="linear-gradient-175" x1="558.14" y1="-136.86" x2="-180" y2="601.29" xlink:href="#linear-gradient"/><linearGradient id="linear-gradient-176" x1="556.39" y1="-138.61" x2="-181.75" y2="599.54" xlink:href="#linear-gradient"/><linearGradient id="linear-gradient-177" x1="555.04" y1="-139.97" x2="-183.11" y2="598.18" xlink:href="#linear-gradient"/><linearGradient id="linear-gradient-178" x1="555.57" y1="-139.43" x2="-182.57" y2="598.72" xlink:href="#linear-gradient"/><linearGradient id="linear-gradient-179" x1="556.78" y1="-138.22" x2="-181.37" y2="599.92" xlink:href="#linear-gradient"/><linearGradient id="linear-gradient-180" x1="558.42" y1="-136.58" x2="-179.72" y2="601.57" xlink:href="#linear-gradient"/><linearGradient id="linear-gradient-181" x1="559.9" y1="-135.11" x2="-178.25" y2="603.04" xlink:href="#linear-gradient"/><linearGradient id="linear-gradient-182" x1="564.88" y1="-130.12" x2="-173.27" y2="608.02" xlink:href="#linear-gradient"/><linearGradient id="linear-gradient-183" x1="568.83" y1="-126.17" x2="-169.31" y2="611.98" xlink:href="#linear-gradient"/><linearGradient id="linear-gradient-184" x1="577.01" y1="-118" x2="-161.14" y2="620.15" xlink:href="#linear-gradient"/><linearGradient id="linear-gradient-185" x1="583.07" y1="-111.93" x2="-155.08" y2="626.21" xlink:href="#linear-gradient"/><linearGradient id="linear-gradient-186" x1="593.18" y1="-101.83" x2="-144.97" y2="636.32" xlink:href="#linear-gradient"/><linearGradient id="linear-gradient-187" x1="602.67" y1="-92.33" x2="-135.48" y2="645.81" xlink:href="#linear-gradient"/><linearGradient id="linear-gradient-188" x1="612.53" y1="-82.47" x2="-125.61" y2="655.68" xlink:href="#linear-gradient"/><linearGradient id="linear-gradient-189" x1="623.62" y1="-71.38" x2="-114.52" y2="666.77" xlink:href="#linear-gradient"/><linearGradient id="linear-gradient-190" x1="637.24" y1="-57.76" x2="-100.9" y2="680.39" xlink:href="#linear-gradient"/><linearGradient id="linear-gradient-191" x1="646.29" y1="-48.71" x2="-91.86" y2="689.43" xlink:href="#linear-gradient"/><linearGradient id="linear-gradient-192" x1="664.81" y1="-30.19" x2="-73.34" y2="707.95" xlink:href="#linear-gradient"/></defs><g id="Layer_2" data-name="Layer 2"><g id="Layer_1-2" data-name="Layer 1"><path class="cls-1" d="M514.13,0C233.6-3.35,3.43,221.31,0,501.84s221.27,510.7,501.8,514.09,510.7-221.27,514.09-501.8S794.66,3.43,514.13,0ZM502.4,970C247.25,966.89,42.91,757.55,46,502.4S258.42,42.91,513.57,46,973.06,258.42,970,513.57,757.55,973.06,502.4,970Z"/><path class="cls-2" d="M504.24,199.28v91.13L491.83,304l-.65.05c-78.69,6.86-144.15,57.31-171.7,128.06L317,429.35c28.25-70.92,94.13-121.45,173.26-128.59l10.67-11.64V199.28Z"/><path class="cls-3" d="M465.43,592.09v98.53l-17.95,13.11-.8-.25a207.47,207.47,0,0,1-133-128.92c-.14-.38-.27-.75-.4-1.13l3.14-1.08c.25.74.51,1.48.77,2.21A204.18,204.18,0,0,0,446.88,700.07l15.23-11.14V593.57C463.23,593.1,464.34,592.61,465.43,592.09Z"/><path class="cls-4" d="M415.09,236A286.72,286.72,0,0,0,237.37,414.88h3.5a283.43,283.43,0,0,1,173.1-175v8.54A276,276,0,0,0,249.53,414.88h3.53A272.59,272.59,0,0,1,416.2,251.11l1.09-.39V235.2ZM764,601.09c-38.55,103.27-138.3,177-255,177-150,0-272-121.84-272-271.61a269.73,269.73,0,0,1,6.77-60.06l-2.71-3a272.84,272.84,0,0,0-7.38,63.05c0,151.59,123.51,274.93,275.32,274.93,118.54,0,219.82-75.2,258.53-180.33Zm0,0c-38.55,103.27-138.3,177-255,177-150,0-272-121.84-272-271.61a269.73,269.73,0,0,1,6.77-60.06l-2.71-3a272.84,272.84,0,0,0-7.38,63.05c0,151.59,123.51,274.93,275.32,274.93,118.54,0,219.82-75.2,258.53-180.33Zm0,0c-38.55,103.27-138.3,177-255,177-150,0-272-121.84-272-271.61a269.73,269.73,0,0,1,6.77-60.06l-2.71-3a272.84,272.84,0,0,0-7.38,63.05c0,151.59,123.51,274.93,275.32,274.93,118.54,0,219.82-75.2,258.53-180.33Zm0,0c-38.55,103.27-138.3,177-255,177-150,0-272-121.84-272-271.61a269.73,269.73,0,0,1,6.77-60.06l-2.71-3a272.84,272.84,0,0,0-7.38,63.05c0,151.59,123.51,274.93,275.32,274.93,118.54,0,219.82-75.2,258.53-180.33ZM606.9,237.29l-2.22-.81V252.2l1.07.41C710.58,292.47,781,394.49,781,506.49a270.58,270.58,0,0,1-7.71,64.31l1.66,1.81,1,1.13a274.21,274.21,0,0,0,8.33-67.25c0-113-70.82-215.94-176.34-256.57v-8.7c110.41,41.11,184.43,147.4,184.43,265.27a281.75,281.75,0,0,1-13,84.81v9.79h-3.29C737.08,710.76,632.08,789.5,509,789.5c-156.27,0-283.41-127-283.41-283a281.34,281.34,0,0,1,8.89-70.29l-2.67-2.94a285,285,0,0,0-9.54,73.23c0,157.88,128.63,286.32,286.73,286.32S795.75,664.37,795.75,506.49C795.75,386.44,719.86,278.26,606.9,237.29ZM509,781.42c118.54,0,219.82-75.2,258.53-180.33H764c-38.55,103.27-138.3,177-255,177-150,0-272-121.84-272-271.61a269.73,269.73,0,0,1,6.77-60.06l-2.71-3a272.84,272.84,0,0,0-7.38,63.05C233.7,658.08,357.21,781.42,509,781.42ZM764,601.09c-38.55,103.27-138.3,177-255,177-150,0-272-121.84-272-271.61a269.73,269.73,0,0,1,6.77-60.06l-2.71-3a272.84,272.84,0,0,0-7.38,63.05c0,151.59,123.51,274.93,275.32,274.93,118.54,0,219.82-75.2,258.53-180.33Zm0,0c-38.55,103.27-138.3,177-255,177-150,0-272-121.84-272-271.61a269.73,269.73,0,0,1,6.77-60.06l-2.71-3a272.84,272.84,0,0,0-7.38,63.05c0,151.59,123.51,274.93,275.32,274.93,118.54,0,219.82-75.2,258.53-180.33Zm0,0c-38.55,103.27-138.3,177-255,177-150,0-272-121.84-272-271.61a269.73,269.73,0,0,1,6.77-60.06l-2.71-3a272.84,272.84,0,0,0-7.38,63.05c0,151.59,123.51,274.93,275.32,274.93,118.54,0,219.82-75.2,258.53-180.33Z"/><path class="cls-5" d="M704.13,495.37c-.1-.11-.2-.21-.29-.32l-3.29-3.57c-.07-1-.16-2-.25-2.93s-.21-2.21-.33-3.31q-.35-3.25-.81-6.48c-.16-1.11-.33-2.21-.51-3.31-14.24-88.8-88.76-156.8-181.53-160.63v122H513.8V311.39l1.71.05c95.37,3.11,172.14,72.85,186.5,164,.18,1.1.35,2.2.5,3.31.31,2.15.57,4.31.8,6.48.12,1.1.23,2.21.33,3.31q.29,3.24.47,6.5C704.12,495.16,704.13,495.26,704.13,495.37Z"/><path class="cls-6" d="M691,577.87A195,195,0,0,1,585.59,686.08l-.82.35-19.2-12.66v-75.9c1.1.3,2.21.56,3.32.81V672l16.22,10.7A191.72,191.72,0,0,0,688.45,575.14Z"/><rect class="cls-7" x="565.55" y="204.58" width="3.32" height="4.87"/><path class="cls-8" d="M699.46,587.15a207.55,207.55,0,0,1-128.1,116.33l-.8.25-17.95-13.11V593.43l1.61.67,1.71.67v94.16l15.23,11.14A204.28,204.28,0,0,0,697,584.47Z"/><path class="cls-9" d="M713.7,476.84l-3.29.47C697,383.51,621.49,312.24,526.92,304l-.64-.06L513.86,290.4l-.07-91.12h3.32l.07,89.84,10.67,11.64C623.66,309.4,700,381.72,713.7,476.84Z"/><path class="cls-10" d="M439.55,207.3v38.19l-9.46,12.93-.51.16a259.4,259.4,0,0,0-164.64,156.3H261.4A262.73,262.73,0,0,1,428.05,255.59l8.18-11.18V207.3Z"/><path class="cls-11" d="M755.34,601.09C717.2,699.8,621.17,770,509,770c-145.52,0-263.9-118.22-263.9-263.53a265.6,265.6,0,0,1,5.27-52.8c.88,1,1.81,2,2.77,3.05a263.12,263.12,0,0,0-4.73,49.75C248.43,650,365.33,766.7,509,766.7c110.29,0,204.78-68.77,242.76-165.61Z"/><path class="cls-12" d="M772.92,506.49a262.54,262.54,0,0,1-6.24,57.08l-2.74-3a260.34,260.34,0,0,0-175.48-302l-.51-.16-9.46-12.93V207.3h3.32v37.11L590,255.59A262.71,262.71,0,0,1,772.92,506.49Z"/><path class="cls-13" d="M478.34,584.71V705.87l-16.78,13.39-.78-.18A218.88,218.88,0,0,1,301.26,573.42l-.7-2.17h57.26c1.09,1.16,1.88,2,2.32,2.42s.6.6.91.89H305.13A215.56,215.56,0,0,0,460.74,715.67L475,704.28V586.88C476.15,586.19,477.26,585.46,478.34,584.71Z"/><path class="cls-14" d="M504.21,560V732.79l-14.87,13.64-.73-.06c-106.41-8.91-195.25-88.15-216-192.72l-.39-2h67.57l3,3.31H276.23c21.17,101.91,108,179,211.94,188l12.72-11.68V563.62Z"/><path class="cls-15" d="M491.27,574V719.84L475.5,733.4l-.75-.12A228.77,228.77,0,0,1,286.52,563.53l-.53-2.07h62.75l3.06,3.32H290.28A225.47,225.47,0,0,0,474.49,729.9L488,718.32V577.15Q489.66,575.64,491.27,574Z"/><path class="cls-16" d="M491.3,198.75V280.4l-11.74,13.46-.61.08C403.22,304.53,340,354.79,311.05,422.86l-2.26-2.46-.2-.21C338.16,352,401.76,301.62,477.86,290.75L488,279.16l0-80.41Z"/><path class="cls-17" d="M478.37,271l-11.08,13.34-.59.11a227.3,227.3,0,0,0-165,130.48H298.1A230.62,230.62,0,0,1,465.5,281.26l9.56-11.51V199.81h3.31Z"/><path class="cls-18" d="M465.43,201.4v60.65l-10.49,13.21-.56.13C379,293.1,318.56,346.28,289.71,414.88h-3.6c29-70,90.27-124.38,166.93-142.58l9.06-11.41V201.4Z"/><rect class="cls-19" x="526.73" y="199.74" width="3.32" height="9.71"/><rect class="cls-20" x="552.61" y="202.39" width="3.32" height="7.06"/><rect class="cls-21" x="539.67" y="200.8" width="3.32" height="8.65"/><path class="cls-22" d="M707.89,596.34A219,219,0,0,1,557.26,719.08l-.78.18L539.7,705.87V586.67c1.09.69,2.2,1.35,3.32,2V704.28l14.28,11.4a215.75,215.75,0,0,0,148.16-122l1.73,1.89Z"/><path class="cls-23" d="M718.34,601.09a228.75,228.75,0,0,1-175.05,132.2l-.75.11-15.78-13.55v-143c1.09,1,2.19,1.94,3.32,2.87V718.33l13.47,11.57A225.47,225.47,0,0,0,714.7,601.09Z"/><path class="cls-24" d="M730.72,601.09C696.17,681.45,619,738.83,529.46,746.36l-.72.06-14.88-13.63,0-169.54,3.32,3.62,0,164.46L529.91,743c87.55-7.63,163-63.56,197.2-141.91Z"/><path class="cls-25" d="M725.52,478.76H688.85l-1.5-1.63-1.55-1.68h35.92C708.1,381.62,633.26,307.11,539.1,293.94l-.61-.08L526.75,280.4V199.75h3.31v9.71l0,69.7,10.1,11.59c96,13.7,172.05,90.15,185.1,186.13Z"/><path class="cls-26" d="M738.42,488.55H697.86l-3.05-3.31h40c-9.32-99.7-84.51-182.15-183.45-200.84l-.59-.11L539.68,271V200.81H543v68.94l9.56,11.51c100.7,19.29,177,103.71,185.72,205.5Z"/><path class="cls-27" d="M750,498.38H706.89l-2.76-3c-.1-.11-.2-.21-.29-.32h.27l42.4,0c-5-105.32-80-195.51-182.84-219.68l-.56-.13-10.49-13.21V202.4h3.32v58.49L565,272.3c104.59,24.83,180.6,117,184.9,224.36Z"/><path class="cls-28" d="M453.09,596.85v76.39l-19.2,12.66-.82-.35a195,195,0,0,1-106.42-111c-.43-1.1-.83-2.2-1.21-3.31q-1.15-3.21-2.17-6.47c-.36-1.1-.69-2.21-1-3.32-.65-2.14-1.25-4.31-1.8-6.48-.3-1.1-.57-2.2-.83-3.31a194,194,0,0,1-4.51-26.91l3.8,4.15A189.53,189.53,0,0,0,323,551.67c.27,1.11.55,2.21.84,3.31q.87,3.27,1.83,6.48c.34,1.11.68,2.22,1,3.32.7,2.17,1.43,4.33,2.21,6.47.4,1.11.81,2.21,1.24,3.31a191.67,191.67,0,0,0,103.35,107.6l16.22-10.7V597.8C450.88,597.51,452,597.19,453.09,596.85Z"/><path class="cls-29" d="M504.86,310.86V436.25h-3.32v-122A191.07,191.07,0,0,0,328.4,441.79L325.86,439c26.38-73,94.89-125.42,177.29-128.11Z"/><path class="cls-30" d="M452.49,253.55l-6.15,8.07.13.11-3.62,4.46-.33.44-.54.15C365.61,288,305.66,344.13,277.46,414.88H273.9C302.2,342.79,363,285.5,440.56,263.74l8.61-11.31V204.59h3.32Z"/><path class="cls-31" d="M743.05,601.09c-37.54,92.29-128.3,157.53-234,157.53-139.22,0-252.47-113.1-252.47-252.12q0-3.13.08-6.25c.08-3.18.21-6.34.41-9.5l.06-.74a249.81,249.81,0,0,1,3-25.62l2.84,3.12c-.43,2.67-.81,5.36-1.16,8.06q-.63,5.08-1.07,10.22-.86,10.26-.86,20.71a250.25,250.25,0,0,0,2,31.64q.79,6.23,1.89,12.34,1.65,9.18,4,18.13c26.16,101.28,114.74,177.78,222.16,186,2.1.16,4.22.29,6.34.4q6.36.33,12.8.33t12.8-.33c2.12-.11,4.24-.24,6.34-.4,95.6-7.29,176.28-68.68,211.31-153.49Z"/><path class="cls-32" d="M761.49,506.5a251.83,251.83,0,0,1-4.34,46.66c-.91-1-1.84-2-2.81-3q1.06-5.94,1.83-12a250.25,250.25,0,0,0,2-31.64q0-10.44-.86-20.71-.43-5.13-1.08-10.22-1-7.62-2.38-15.12c-17.38-91.63-85.65-168-177.79-193.67l-.54-.15-.34-.44-3.61-4.46.13-.11-6.15-8.07v-49h3.32v47.84l8.61,11.31C680.53,292.65,754,384.26,760.94,490l.06.74c.2,3.16.33,6.32.41,9.5Q761.49,503.37,761.49,506.5Z"/><path class="cls-33" d="M514,7.29C237.51,4,10.63,225.4,7.29,501.93s218.11,503.4,494.64,506.75S1005.34,790.56,1008.68,514,790.56,10.63,514,7.29ZM502.32,976.23C243.72,973.1,36.61,760.92,39.74,502.32S255,36.61,513.65,39.74,979.35,255,976.23,513.65,760.93,979.35,502.32,976.23Z"/><path class="cls-34" d="M507.78,876.9c-203.41,0-368.89-165.49-368.89-368.9S304.37,139.1,507.78,139.1,876.68,304.59,876.68,508,711.2,876.9,507.78,876.9Zm0-733.9c-201.26,0-365,163.74-365,365s163.73,365,365,365,365-163.74,365-365S709,143,507.78,143Z"/><path class="cls-35" d="M508,904.84c-218.82,0-396.85-178-396.85-396.85S289.16,111.13,508,111.13,904.84,289.16,904.84,508,726.81,904.84,508,904.84Zm0-786.07c-214.61,0-389.21,174.6-389.21,389.22S293.37,897.2,508,897.2,897.2,722.6,897.2,508,722.6,118.77,508,118.77Z"/><path class="cls-36" d="M170.74,508c0,185.84,151.2,337,337,337,141.31,0,268.65-89.21,316.87-222l1-2.62H807.1l-.47,1.26c-46.92,123.23-167,206-298.85,206C331.49,827.72,188.06,684.3,188.06,508S331.49,188.27,507.78,188.27c134.07,0,254.87,84.65,300.61,210.62l.46,1.29h18.27l-.89-2.59A337.27,337.27,0,0,0,507.78,171C321.94,171,170.74,322.15,170.74,508ZM821.63,396.28h-10C764.94,269.47,643,184.38,507.78,184.38c-178.44,0-323.62,145.17-323.62,323.62S329.34,831.62,507.78,831.62c133,0,254.18-83.24,302-207.28H820c-48.38,129.79-173.51,216.8-312.25,216.8-183.69,0-333.14-149.45-333.14-333.14S324.09,174.86,507.78,174.86A333.37,333.37,0,0,1,821.63,396.28Z"/><path class="cls-37" d="M817.28,430.36h27.64a4.5,4.5,0,0,0,4.46-4h16.47v-3.9H849.42v-2.69a4.5,4.5,0,0,0-4.5-4.5H817.28a4.5,4.5,0,0,0-4.5,4.5v.13l-9.66-7.06c-41.42-128.64-160-215-295.34-215-171,0-310.2,139.16-310.2,310.21s139.15,310.2,310.2,310.2c135.31,0,253.91-86.38,295.34-215l13.16-9.62h49.57v-3.9H815l-15.22,11.12-.19.6c-40.72,127.36-158,212.93-291.82,212.93-168.89,0-306.3-137.41-306.3-306.31s137.41-306.31,306.3-306.31c133.82,0,251.1,85.57,291.82,212.93l.19.6,13,9.49v1.14A4.5,4.5,0,0,0,817.28,430.36Z"/><polygon class="cls-38" points="874.73 535.95 870.98 535.95 870.98 536.02 874.73 535.95"/><path class="cls-39" d="M389.94,171.49a9.86,9.86,0,0,0,3.66-.51,356.44,356.44,0,0,1,37.1-10.36,9.75,9.75,0,1,0-4.21-19,369.83,369.83,0,0,0-39.15,10.93,9.75,9.75,0,0,0,2.6,19Z"/><path class="cls-40" d="M318.3,204.82a9.71,9.71,0,0,0,5.58-1.4,355.65,355.65,0,0,1,34-18.11,9.75,9.75,0,1,0-8.22-17.68,372,372,0,0,0-35.85,19.11,9.75,9.75,0,0,0,4.51,18.08Z"/><path class="cls-41" d="M255.45,252.75a9.76,9.76,0,0,0,7.25-2.66,361.52,361.52,0,0,1,29.33-25,9.75,9.75,0,1,0-11.83-15.5,382.06,382.06,0,0,0-30.92,26.34,9.76,9.76,0,0,0,6.17,16.81Z"/><path class="cls-42" d="M467.09,154.41a9.65,9.65,0,0,0,1.61,0,360.19,360.19,0,0,1,38.46-2.1,9.75,9.75,0,0,0,0-19.5A378.63,378.63,0,0,0,466.58,135a9.75,9.75,0,0,0,.51,19.42Z"/><path class="cls-43" d="M199.36,311.36a9.76,9.76,0,0,0,13.54-2.6,356.94,356.94,0,0,1,23.32-30.68,9.75,9.75,0,1,0-14.87-12.62,376.84,376.84,0,0,0-24.58,32.36A9.75,9.75,0,0,0,199.36,311.36Z"/><path class="cls-44" d="M821.94,340.75a9.76,9.76,0,0,0,17.21-9.19,379.17,379.17,0,0,0-21.06-34.75,9.75,9.75,0,1,0-16.1,11A357.17,357.17,0,0,1,821.94,340.75Z"/><path class="cls-45" d="M545.65,154.28a359.94,359.94,0,0,1,38,6.12,10,10,0,0,0,1.53.21,9.75,9.75,0,0,0,2.6-19.27,380.61,380.61,0,0,0-40.11-6.45,9.75,9.75,0,1,0-2.06,19.39Z"/><path class="cls-46" d="M164.24,382.22a9.45,9.45,0,0,0,3.06.67,9.75,9.75,0,0,0,9.6-6.14,355.56,355.56,0,0,1,16.15-35,9.75,9.75,0,0,0-17.23-9.12,376.68,376.68,0,0,0-17,36.91A9.76,9.76,0,0,0,164.24,382.22Z"/><path class="cls-47" d="M778.58,277.2a9.75,9.75,0,0,0,14.84-12.66,379.65,379.65,0,0,0-28-29.44A9.75,9.75,0,1,0,752,249.27,358.94,358.94,0,0,1,778.58,277.2Z"/><path class="cls-48" d="M620.82,170.6a355.63,355.63,0,0,1,35.83,14.18,9.75,9.75,0,0,0,8.15-17.71,376.07,376.07,0,0,0-37.79-15,9.75,9.75,0,0,0-6.19,18.49Z"/><path class="cls-49" d="M690.71,202.78a359.38,359.38,0,0,1,31.92,21.59,9.75,9.75,0,1,0,11.78-15.53,375,375,0,0,0-33.67-22.78,9.75,9.75,0,0,0-10,16.72Z"/><path class="cls-50" d="M838.23,375.64a353.34,353.34,0,0,1,12.4,36.47,9.76,9.76,0,0,0,8.85,7.1,9.6,9.6,0,0,0,3.17-.35,9.75,9.75,0,0,0,6.76-12,375.4,375.4,0,0,0-13.09-38.47,9.75,9.75,0,0,0-18.09,7.27Z"/><path class="cls-51" d="M145.26,459a9.25,9.25,0,0,0,1,.11,9.77,9.77,0,0,0,10.16-8.17,355.45,355.45,0,0,1,8.2-37.64,9.75,9.75,0,1,0-18.8-5.18,379.45,379.45,0,0,0-8.65,39.7A9.75,9.75,0,0,0,145.26,459Z"/><path class="cls-52" d="M584.18,856a356.31,356.31,0,0,1-38,6.19,9.75,9.75,0,0,0,.49,19.42,9.44,9.44,0,0,0,1.59,0A374.8,374.8,0,0,0,588.35,875a9.75,9.75,0,0,0-4.17-19Z"/><path class="cls-53" d="M723,791.79a359,359,0,0,1-31.88,21.62,9.75,9.75,0,1,0,10,16.7,380.17,380.17,0,0,0,33.63-22.79A9.75,9.75,0,1,0,723,791.79Z"/><path class="cls-54" d="M657.08,831.46a358.37,358.37,0,0,1-35.79,14.26,9.75,9.75,0,1,0,6.22,18.48,375.72,375.72,0,0,0,37.76-15.05,9.75,9.75,0,0,0-8.19-17.69Z"/><path class="cls-55" d="M862.75,597.09a9.77,9.77,0,0,0-12,6.78,350.19,350.19,0,0,1-12.32,36.5A9.76,9.76,0,0,0,843.86,653a9.6,9.6,0,0,0,3.08.69,9.77,9.77,0,0,0,9.59-6.12,373.31,373.31,0,0,0,13-38.52A9.75,9.75,0,0,0,862.75,597.09Z"/><path class="cls-56" d="M835.39,671.29a9.77,9.77,0,0,0-13.19,4,358.9,358.9,0,0,1-19.92,33,9.75,9.75,0,1,0,16.12,11,377.24,377.24,0,0,0,21-34.79A9.75,9.75,0,0,0,835.39,671.29Z"/><path class="cls-57" d="M778.9,738.93a358.87,358.87,0,0,1-26.53,27.93A9.75,9.75,0,1,0,765.76,781a375.87,375.87,0,0,0,28-29.45,9.75,9.75,0,1,0-14.84-12.65Z"/><path class="cls-58" d="M507.69,864.2a365.47,365.47,0,0,1-38.49-2.1,9.75,9.75,0,0,0-2.09,19.39q9.87,1.07,19.88,1.63c6.88.38,13.83.58,20.68.58a9.75,9.75,0,0,0,9.76-9.74A9.62,9.62,0,0,0,507.69,864.2Z"/><path class="cls-59" d="M164.76,603.66a352.51,352.51,0,0,1-8.28-37.61,9.75,9.75,0,1,0-19.25,3.15A376.29,376.29,0,0,0,146,608.89a9.75,9.75,0,1,0,18.79-5.23Z"/><path class="cls-60" d="M431.19,855.91a356.37,356.37,0,0,1-37.12-10.27,9.75,9.75,0,1,0-6.22,18.48A377.06,377.06,0,0,0,427,875a10.48,10.48,0,0,0,1.55.21,9.75,9.75,0,0,0,2.62-19.26Z"/><path class="cls-61" d="M177.08,640.15a9.75,9.75,0,0,0-18.1,7.24,376.24,376.24,0,0,0,17.1,36.85,9.75,9.75,0,1,0,17.21-9.15A359.13,359.13,0,0,1,177.08,640.15Z"/><path class="cls-62" d="M143.12,538a9.75,9.75,0,0,0,9.22-10.26,358.66,358.66,0,0,1,0-38.52c.29-5.38-3.93-9.63-9.21-10.26a9.74,9.74,0,0,0-10.26,9.21,382.21,382.21,0,0,0,0,40.62,9.76,9.76,0,0,0,9.19,9.21A9.55,9.55,0,0,0,143.12,538Z"/><path class="cls-63" d="M358.28,831.38a357.45,357.45,0,0,1-34-18.07A9.75,9.75,0,1,0,314.18,830a375,375,0,0,0,35.91,19.06,9.43,9.43,0,0,0,3.55.89,9.75,9.75,0,0,0,4.64-18.58Z"/><path class="cls-64" d="M213.19,708.06a9.75,9.75,0,1,0-16.12,11,381,381,0,0,0,24.6,32.32,9.75,9.75,0,0,0,14.86-12.63A360.92,360.92,0,0,1,213.19,708.06Z"/><path class="cls-65" d="M292.38,791.66a359.41,359.41,0,0,1-29.36-25,9.75,9.75,0,0,0-13.41,14.15,379.76,379.76,0,0,0,30.95,26.33,9.75,9.75,0,1,0,11.82-15.51Z"/><path class="cls-66" d="M697.06,282.64c4.94,4.15,9.77,8.44,14.43,12.91l3.66,3.59a292.89,292.89,0,0,1,76.28,129.59l.17.63,15.49,11.79h7.3v1.39a4.53,4.53,0,0,0,4.53,4.53h27.81a4.53,4.53,0,0,0,4.53-4.53v-1.39H871v-3.92H851.26v-.83a4.52,4.52,0,0,0-4.53-4.52H818.92a4.52,4.52,0,0,0-4.53,4.52v.83h-6L795,427C759,298.89,640.91,209.45,507.56,209.45,342.94,209.45,209,343.38,209,508S342.94,806.54,507.56,806.54C640.92,806.54,759,717.09,795,588.92l3.68-3h62.75v-7.18H871v-3.92h-9.52V563.47h12.11v-3.92H861.47V548.17h14v-3.92h-14V532.87h15.25V529H861.47v-2.73h-63.2V583l-.86-1.07-5.81,4.7-.17.61c-34,122-143.27,208.49-268.86,214.92l-5.13.22c-3.29.11-6.58.21-9.88.21s-6.31-.07-9.45-.17l-5.13-.19c-155.71-7.62-280-136.69-280-294.26A293.54,293.54,0,0,1,293,306.31l3.55-3.7q6.74-6.93,13.92-13.41l3.84-3.41a294,294,0,0,1,378.78-6.43ZM857.69,567.27l-15,14.9H831.44l26.25-26.25Zm0-16.69L826.1,582.17H814.76l42.93-42.93Zm-55.64-5.76L816.94,530h11.28l-26.17,26.24Zm0,16.76L833.56,530H845l-42.93,42.86ZM811.59,530l-9.54,9.5V530Zm-9.54,48.2L850.32,530h7.37v3.9l-48.27,48.27h-7.37Zm46,4,9.62-9.58v9.58Z"/><path class="cls-67" d="M659.59,536.52A75.47,75.47,0,0,0,663.67,523l56,61.1h42.71S650.15,461.48,642.9,454.23a75.89,75.89,0,0,0-107.43,0l-.25.24-17.78,19.39,22.7,21.81L558,476.26a44.47,44.47,0,1,1,0,63.36l-77.88-84.9-.23-.25-.24-.24a76,76,0,0,0-128.06,38l-55.28-60.32H253.54S364.91,554.41,372.16,561.66a75.94,75.94,0,0,0,107.44,0l.24-.24L497.64,542,476.17,518.8l-19.05,20.82a44.46,44.46,0,1,1,0-63.36L535,561.17l.22.25.25.24a76,76,0,0,0,124.12-25.14Z"/><rect class="cls-68" x="498.14" y="407.37" width="9.71" height="30.98" rx="2.69"/><rect class="cls-69" x="510.71" y="407.37" width="9.71" height="30.98" rx="2.69"/><rect class="cls-70" x="484.61" y="224.13" width="9.81" height="24.7" rx="3.01"/><rect class="cls-71" x="497.98" y="224.13" width="9.81" height="24.7" rx="3.01" transform="translate(1005.76 472.95) rotate(180)"/><rect class="cls-72" x="510.73" y="224.13" width="9.81" height="24.7" rx="3.01"/><rect class="cls-73" x="523.49" y="224.13" width="9.81" height="24.7" rx="3.01"/><path class="cls-74" d="M691,478.76c-.16-1.11-.33-2.21-.53-3.31a183.11,183.11,0,0,0-162.6-151.76l0,.35h-.53v72.19l15.94,15.94H663.28a179.59,179.59,0,0,1,23.79,63.28c.1.56.19,1.12.28,1.68l1.5,1.63,2.51,2.72C691.23,480.57,691.1,479.66,691,478.76Zm-41.72-86.42H557.81l-11.48-11.48v-51q5.91,1.23,11.67,2.84v42.52h75.27v-.07A180.26,180.26,0,0,1,649.24,392.34Zm-87.55-58.56a179.68,179.68,0,0,1,67.61,37.75H561.69Zm-17,74.7L531,394.7V327.36q5.89.72,11.66,1.79l0,53.24L556.28,396h95.9q4.65,6,8.79,12.44Z"/><path class="cls-75" d="M677.61,571.26c-.42,1.11-.86,2.21-1.32,3.31a181,181,0,0,1-77.17,88.35l-17.3-10V600.62c-1.11-.08-2.22-.19-3.32-.32v54.5l20.61,12,.82-.47a184.39,184.39,0,0,0,79.94-91.71c.45-1.1.87-2.2,1.29-3.31s.72-1.92,1.07-2.89l-2.54-2.77Q678.7,568.45,677.61,571.26Z"/><rect class="cls-76" x="546.51" y="345.34" width="26.66" height="10.99" rx="3.24" transform="translate(910.67 -209.01) rotate(90)"/><rect class="cls-77" x="531.14" y="354.12" width="26.66" height="10.99" rx="3.24" transform="translate(904.09 -184.86) rotate(90)"/><rect class="cls-78" x="515.78" y="363.13" width="26.66" height="10.99" rx="3.24" transform="translate(897.74 -160.48) rotate(90)"/><path class="cls-79" d="M436.22,652.88l-17.29,10a181,181,0,0,1-77.19-88.36c-.45-1.1-.89-2.2-1.31-3.31q-1.24-3.21-2.37-6.47c-.38-1.1-.74-2.21-1.09-3.32-.7-2.14-1.35-4.31-2-6.48-.31-1.1-.61-2.2-.89-3.31-.72-2.73-1.36-5.49-1.94-8.26l-4.3-4.69q1.17,6.54,2.81,12.95c.28,1.11.57,2.21.88,3.31.6,2.18,1.23,4.34,1.92,6.48.34,1.11.7,2.22,1.08,3.32.72,2.18,1.49,4.33,2.3,6.47.42,1.11.85,2.21,1.29,3.31a184.41,184.41,0,0,0,80,91.72l.83.47,20.59-12V599.91c-1.1.17-2.21.31-3.32.42Z"/><path class="cls-80" d="M490.54,327l0-.21V324h-.28l0-.35c-1.06.1-2.12.22-3.17.35h-.22v0a183.18,183.18,0,0,0-122.29,68.28h0v0a183.11,183.11,0,0,0-30.16,55.92l2.58,2.82a178.9,178.9,0,0,1,17.82-38.93H474.58l15.94-15.94V327Zm-34.45,6.87v37.68H388.73A179.69,179.69,0,0,1,456.09,333.85Zm-71.4,41.38h75.1V332.78q5.74-1.61,11.67-2.85l0,50.93L460,392.34H368.79A181.24,181.24,0,0,1,384.69,375.23ZM486.82,394.7l-13.77,13.78h-116q4.14-6.42,8.79-12.44h95.63l13.65-13.65V329.2q5.78-1.08,11.67-1.81Z"/><rect class="cls-81" x="444.61" y="345.34" width="26.66" height="10.99" rx="3.24" transform="translate(808.77 -107.1) rotate(90)"/><rect class="cls-82" x="459.98" y="354.12" width="26.66" height="10.99" rx="3.24" transform="translate(832.92 -113.69) rotate(90)"/><rect class="cls-83" x="475.34" y="363.13" width="26.66" height="10.99" rx="3.24" transform="translate(857.3 -120.04) rotate(90)"/><rect class="cls-84" x="272.66" y="533.22" width="26.66" height="10.99" rx="3.24" transform="translate(571.97 1077.43) rotate(-180)"/><rect class="cls-85" x="268.83" y="516.63" width="26.66" height="10.99" rx="3.24" transform="translate(564.31 1044.24) rotate(-180)"/><rect class="cls-86" x="266.53" y="500.03" width="26.66" height="10.99" rx="3.24" transform="translate(559.72 1011.05) rotate(-180)"/><rect class="cls-87" x="725.09" y="503.81" width="26.66" height="10.99" rx="3.24" transform="translate(1476.83 1018.6) rotate(-180)"/><path class="cls-88" d="M573.32,100.47l-6.4-25.84,6,1L578.5,98.5,575,97.91l12.78-19.83,5.55.92-14.44,22.39Z"/><path class="cls-89" d="M602.1,106.55a15.07,15.07,0,0,1-5-2.14,12.72,12.72,0,0,1-3.54-3.55,12,12,0,0,1-1.81-4.55,12.52,12.52,0,0,1,.17-5.12A12.65,12.65,0,0,1,594,86.51a12.14,12.14,0,0,1,3.65-3.27,13,13,0,0,1,4.75-1.62,14.79,14.79,0,0,1,5.39.29,14.58,14.58,0,0,1,5,2.13,12.46,12.46,0,0,1,5.35,8.08,12.46,12.46,0,0,1-.16,5.14,12.66,12.66,0,0,1-2.14,4.69,12.12,12.12,0,0,1-3.65,3.27,12.91,12.91,0,0,1-4.71,1.61A14.68,14.68,0,0,1,602.1,106.55Zm1.06-4.71a8,8,0,0,0,3.07.15,7.4,7.4,0,0,0,2.73-1,7.29,7.29,0,0,0,2.14-2,9,9,0,0,0,1.45-6.2,7.59,7.59,0,0,0-1-2.78,7.05,7.05,0,0,0-2-2.11,8.47,8.47,0,0,0-5.9-1.38,7.17,7.17,0,0,0-2.73,1,7.32,7.32,0,0,0-2.15,2,8.34,8.34,0,0,0-1.28,3,8.56,8.56,0,0,0-.16,3.21,7.51,7.51,0,0,0,1,2.79,7.09,7.09,0,0,0,2,2.12A8.14,8.14,0,0,0,603.16,101.84Z"/><path class="cls-90" d="M630.11,114.14a14.8,14.8,0,0,1-4.84-2.49,12.72,12.72,0,0,1-3.29-3.79,12.29,12.29,0,0,1-1.48-4.67,13.22,13.22,0,0,1,3-9.61,11.81,11.81,0,0,1,3.87-3,13,13,0,0,1,4.85-1.28,14.46,14.46,0,0,1,5.35.67,14.69,14.69,0,0,1,4.81,2.47,12.9,12.9,0,0,1,3.26,3.79,12.23,12.23,0,0,1,1,9.77,12.53,12.53,0,0,1-2.46,4.52,12.14,12.14,0,0,1-3.88,3,12.74,12.74,0,0,1-4.81,1.27A14.68,14.68,0,0,1,630.11,114.14Zm1.39-4.62a7.79,7.79,0,0,0,3.06.36,7,7,0,0,0,2.79-.82,7.34,7.34,0,0,0,2.28-1.88,8.41,8.41,0,0,0,1.49-2.87,8.23,8.23,0,0,0,.39-3.21,7.39,7.39,0,0,0-.8-2.84A7,7,0,0,0,638.87,96a8.46,8.46,0,0,0-5.79-1.8,7.42,7.42,0,0,0-2.8.82A7.34,7.34,0,0,0,628,96.92a8.41,8.41,0,0,0-1.49,2.87,8.24,8.24,0,0,0-.38,3.19,7.42,7.42,0,0,0,.79,2.86,7,7,0,0,0,1.85,2.25A8.08,8.08,0,0,0,631.5,109.52Z"/><path class="cls-91" d="M646.62,119.11l8.63-22.87,5.3,2-7,18.56L665,121.13l-1.62,4.31Z"/><path class="cls-92" d="M663.21,125.26l19.9-17.91,5.1,2.28,0,26.78L682.83,134l.61-23.36,2,.91-17,16.07Zm7.11-2.57,3.12-3.31,11.48,5.11-.34,4.55Z"/><path class="cls-93" d="M704.37,138.88a4.37,4.37,0,0,1-1.65-1.54,4.23,4.23,0,0,1-.66-2.13,4.29,4.29,0,0,1,.55-2.3,4.24,4.24,0,0,1,1.59-1.73,4.43,4.43,0,0,1,2.13-.62,4.18,4.18,0,0,1,2.2.52,4.3,4.3,0,0,1,1.66,1.53,4.56,4.56,0,0,1,.67,2.12,4.43,4.43,0,0,1-6.49,4.15Z"/><path class="cls-94" d="M718.15,152.57l13.05-20.69,9.39,5.93a15.35,15.35,0,0,1,5.13,5,11.57,11.57,0,0,1,1.75,6.12,13,13,0,0,1-6.88,10.92A11.57,11.57,0,0,1,734.3,161a15.44,15.44,0,0,1-6.75-2.46Zm7.27-.92,4.37,2.76a9.19,9.19,0,0,0,4.08,1.48,6.68,6.68,0,0,0,3.77-.74,8.64,8.64,0,0,0,4.3-6.81,6.69,6.69,0,0,0-1-3.7,9,9,0,0,0-3.09-3l-4.38-2.76Z"/><path class="cls-95" d="M749.33,167.58l10.79,7.79-2.65,3.68L742.12,168l14.3-19.83,15,10.81-2.65,3.69-10.43-7.52Zm5.55-8.4,9.54,6.88-2.57,3.57-9.55-6.88Z"/><path class="cls-96" d="M769.59,189.3a14.59,14.59,0,0,1-3.5-4,12.45,12.45,0,0,1-1.6-4.7,12.17,12.17,0,0,1,.39-4.87,13.34,13.34,0,0,1,6.39-7.86,12.21,12.21,0,0,1,4.7-1.35,12.63,12.63,0,0,1,4.93.61,15.45,15.45,0,0,1,8.44,7.1,11.12,11.12,0,0,1,1.3,5.22l-4.93.31a8.61,8.61,0,0,0-.81-3.43,7.72,7.72,0,0,0-2.15-2.67,8.41,8.41,0,0,0-2.79-1.55,7,7,0,0,0-2.94-.32,7.28,7.28,0,0,0-2.82.9,8.31,8.31,0,0,0-2.46,2.1,8.53,8.53,0,0,0-1.56,2.83,7.39,7.39,0,0,0-.3,2.94,7.08,7.08,0,0,0,.91,2.82,8.54,8.54,0,0,0,2.08,2.41,7.87,7.87,0,0,0,3,1.57,8.44,8.44,0,0,0,3.55.07l.7,4.89a11.36,11.36,0,0,1-5.4-.2A14.38,14.38,0,0,1,769.59,189.3Z"/><path class="cls-97" d="M787.47,198.15l9.81,9-3.06,3.34-14-12.78,16.51-18,13.63,12.48-3.07,3.34-9.48-8.68Zm6.49-7.7,8.68,8-3,3.24L791,193.69Z"/><path class="cls-98" d="M797.21,213.35l17.58-17,3.25,3.37-2.64,22.61-1.57-1.64,12.66-12.23,3.88,4-17.59,17-3.22-3.34,2.61-22.63,1.58,1.63-12.66,12.23Z"/><path class="cls-99" d="M819.68,237.42l15.06-12.92-5.1-5.93,3.5-3L847,231.74l-3.5,3-5.09-5.94-15.06,12.91Z"/><path class="cls-100" d="M830.14,249.77l19.43-14.85,6.43,8.41a13.92,13.92,0,0,1,2.59,5.14,8.36,8.36,0,0,1-.2,4.77,8.57,8.57,0,0,1-3,3.91,8.32,8.32,0,0,1-4.52,1.83,8.13,8.13,0,0,1-4.63-1.08A13.86,13.86,0,0,1,842,254l-4.52-5.91,3.5.49-7.38,5.65Zm9.44,12.35,3.34-10.24,3.67,4.8L843.3,267Zm.88-13.11.58-3.61,4.33,5.66a5.84,5.84,0,0,0,3.28,2.42,4.46,4.46,0,0,0,5-3.81,5.86,5.86,0,0,0-1.49-3.79l-4.33-5.66,3.67.37Z"/><path class="cls-101" d="M843.61,267.31,870,262.75l3.11,4.64-14.23,22.69-3.31-4.93,13-19.44,1.24,1.86-22.93,4.55Zm7.38,1.61,4.41-1.15,7,10.45-2.72,3.67Z"/><path class="cls-102" d="M859.91,292.06,881,279.63l2.88,4.88-17.09,10.08L873,305.15l-4,2.34Z"/><path class="cls-103" d="M870.33,310.12l21.53-11.6,2.68,5L873,315.1Z"/><path class="cls-104" d="M875,318.58l3.3-1.6,23,5.63-1.55,1.53-6.79-14,4.15-2,9,18.51-3.3,1.6-23-5.6,1.54-1.53,7.13,14.67-4.14,2Z"/><path class="cls-105" d="M892,344.28l5.14,12.28-4.19,1.75-7.31-17.47,22.56-9.43,7.13,17-4.19,1.75-5-11.86ZM901.1,340l4.54,10.86-4.06,1.7L897,341.71Z"/><path class="cls-106" d="M894.45,362.18l23.11-8,3.63,10.5a15.51,15.51,0,0,1,.86,7.13,11.49,11.49,0,0,1-2.46,5.87,11.79,11.79,0,0,1-5.54,3.73,11.91,11.91,0,0,1-6.65.5,11.67,11.67,0,0,1-5.58-3.1,15.51,15.51,0,0,1-3.74-6.14Zm6.24,3.82,1.69,4.89a9.2,9.2,0,0,0,2.27,3.71,6.66,6.66,0,0,0,3.4,1.77,8.63,8.63,0,0,0,7.61-2.63,6.71,6.71,0,0,0,1.56-3.5,9.2,9.2,0,0,0-.51-4.31L915,361.05Z"/><path class="cls-107" d="M906.27,398.48,930,392.67l2.64,10.79a15.41,15.41,0,0,1,.19,7.18,11.58,11.58,0,0,1-3,5.62,13,13,0,0,1-12.54,3.07,11.49,11.49,0,0,1-5.26-3.6,15.46,15.46,0,0,1-3.15-6.46Zm5.86,4.4,1.23,5a9,9,0,0,0,1.91,3.9,6.7,6.7,0,0,0,3.22,2.09,8,8,0,0,0,4.14,0,7.78,7.78,0,0,0,3.68-1.93,6.68,6.68,0,0,0,1.88-3.33,9.09,9.09,0,0,0-.11-4.35l-1.23-5Z"/><path class="cls-108" d="M912.73,426.31l24-4.66,1.08,5.56-24,4.65Z"/><path class="cls-109" d="M916.2,449a14.72,14.72,0,0,1,.15-5.4,12.48,12.48,0,0,1,2-4.56,12.14,12.14,0,0,1,3.57-3.35,13.38,13.38,0,0,1,10-1.47,12,12,0,0,1,4.39,2.2,12.63,12.63,0,0,1,3.22,3.83,14.9,14.9,0,0,1,1.7,5.19,15.26,15.26,0,0,1-.22,6,11.68,11.68,0,0,1-2.48,4.79l-3.84-3.11a8.8,8.8,0,0,0,1.63-3.17,8.42,8.42,0,0,0,.18-3.48,9.07,9.07,0,0,0-1-3.14,7.31,7.31,0,0,0-2-2.27,7.16,7.16,0,0,0-2.69-1.26,9,9,0,0,0-6.26.91,7.35,7.35,0,0,0-2.23,2,7.11,7.11,0,0,0-1.24,2.72,8.79,8.79,0,0,0-.09,3.25,10.09,10.09,0,0,0,1,3.15,9.36,9.36,0,0,0,2.26,2.79l-3.58,3.77a14.79,14.79,0,0,1-3-4.24A18.34,18.34,0,0,1,916.2,449Zm4.49,4.11,9.09-1.33.75,5.11-9.82,1.44Z"/><path class="cls-110" d="M918.47,463.7l24.33-2.43.56,5.63L919,469.33Z"/><path class="cls-111" d="M919.89,479.93l19.8-1.2-.47-7.81,4.6-.28,1.29,21.27-4.6.28-.48-7.81-19.8,1.2Z"/><path class="cls-112" d="M920.59,491.71l24.63,10.5.09,5.59L921,519.13l-.1-5.94,21.44-9.29,0,2.24-21.73-8.63Zm5.33,5.37,4.32,1.43.21,12.57-4.28,1.61Z"/><path class="cls-113" d="M920.69,521.32l24.42,1.22-.28,5.65-19.82-1-.61,12.25-4.6-.23Z"/><path class="cls-114" d="M916.75,563.33a14.64,14.64,0,0,1,1.59-5.1,12.31,12.31,0,0,1,3.16-3.83,12,12,0,0,1,4.34-2.24,13.33,13.33,0,0,1,10,1.3,12.13,12.13,0,0,1,3.63,3.28,12.64,12.64,0,0,1,2.07,4.51A15.6,15.6,0,0,1,940,572.16a11.21,11.21,0,0,1-3.76,3.86l-2.86-4a8.68,8.68,0,0,0,2.49-2.49,8,8,0,0,0,1.14-3.24,8.88,8.88,0,0,0-.15-3.19,7.21,7.21,0,0,0-3.53-4.59,8.51,8.51,0,0,0-3.08-1,8.37,8.37,0,0,0-3.22.16,7.23,7.23,0,0,0-2.67,1.3,7.07,7.07,0,0,0-1.91,2.25,8.47,8.47,0,0,0-1,3,7.76,7.76,0,0,0,.28,3.41,8.12,8.12,0,0,0,1.81,3.05l-3.8,3.18a11.39,11.39,0,0,1-2.66-4.7A14.21,14.21,0,0,1,916.75,563.33Z"/><path class="cls-115" d="M912.83,587.22q1-5.1,4.4-7.43t8.68-1.3l13.44,2.61-1.08,5.55L925,584.08c-2.29-.44-4-.3-5.21.45a6,6,0,0,0-1.53,7.88c.82,1.13,2.38,1.92,4.66,2.37l13.24,2.57-1.07,5.48-13.44-2.61q-5.28-1-7.57-4.46T912.83,587.22Z"/><path class="cls-116" d="M906,618.28l10.13-3.67-1.53,5.85-10.15,3.74Zm3.93-15,23.65,6.18-2.68,10.24a13.72,13.72,0,0,1-2.46,5.21,8.32,8.32,0,0,1-3.88,2.77,8.55,8.55,0,0,1-4.92.05,8.33,8.33,0,0,1-4.22-2.44,8.22,8.22,0,0,1-2-4.31,14.11,14.11,0,0,1,.42-5.74l1.88-7.2,1.77,3.06-9-2.35Zm6.95,7.66,3.2-1.76-1.8,6.89a5.79,5.79,0,0,0,.11,4.08,4.43,4.43,0,0,0,6.06,1.58,5.82,5.82,0,0,0,2.07-3.5l1.81-6.89,2,3.11Z"/><path class="cls-117" d="M898.52,642.46l10.34-3L907,645.16l-10.36,3.1Zm4.85-14.77,23.23,7.63-3.3,10.06a13.79,13.79,0,0,1-2.78,5,8.28,8.28,0,0,1-4,2.53,8.61,8.61,0,0,1-4.92-.25,8.43,8.43,0,0,1-4.06-2.7,8.21,8.21,0,0,1-1.72-4.43,14,14,0,0,1,.77-5.7l2.32-7.07,1.57,3.17-8.82-2.9Zm6.47,8.08,3.3-1.56L910.92,641a5.77,5.77,0,0,0-.15,4.07,4.47,4.47,0,0,0,6,2,5.83,5.83,0,0,0,2.28-3.37l2.23-6.77L923,640.1Z"/><path class="cls-118" d="M897.43,658.59,892.54,671l-4.22-1.67,7-17.61,22.73,9-6.79,17.18L907,676.2l4.72-12Zm9.51,3.31-4.33,11-4.09-1.62,4.33-11Z"/><path class="cls-119" d="M886.7,673.13l22.13,10.38-2,4.24-22.06,5.58,1-2.06,15.94,7.48-2.37,5.06-22.14-10.38,2-4.21,22.08-5.61-1,2-15.94-7.47Z"/><path class="cls-120" d="M868.67,708.28a14.63,14.63,0,0,1,3.34-4.15,12.22,12.22,0,0,1,9.2-2.92,12.8,12.8,0,0,1,4.92,1.57,12.65,12.65,0,0,1,4,3.32,12,12,0,0,1,2.17,4.38,12.32,12.32,0,0,1,.28,5,14.48,14.48,0,0,1-1.73,5.07,14.26,14.26,0,0,1-3.73,4.5,11.12,11.12,0,0,1-4.91,2.22l-1.19-4.8A8.39,8.39,0,0,0,884.2,721a7.84,7.84,0,0,0,2.24-2.59,8.34,8.34,0,0,0,1-3,7.12,7.12,0,0,0-.21-2.95,7.46,7.46,0,0,0-1.39-2.62,8.38,8.38,0,0,0-2.51-2,8.59,8.59,0,0,0-3.06-1,7.46,7.46,0,0,0-2.95.23,7.2,7.2,0,0,0-2.61,1.4,8.69,8.69,0,0,0-2,2.48,7.69,7.69,0,0,0-1,3.29,8.31,8.31,0,0,0,.56,3.5l-4.69,1.56a11.26,11.26,0,0,1-.76-5.34A14.23,14.23,0,0,1,868.67,708.28Z"/><path class="cls-121" d="M859.22,725.21l8.45,5.32-3.58-.73,20.86.41-3.19,5.09-16-.33,1.84-2.93,7.21,14.32-3,4.7-9.41-18.63,2.23,2.89L856.21,730Z"/><path class="cls-122" d="M846.59,753.57a4.32,4.32,0,0,1,1.75-1.43,4.36,4.36,0,0,1,4.41.5,4.31,4.31,0,0,1,1.49,1.82,4.45,4.45,0,0,1,.32,2.2,4.46,4.46,0,0,1-2.56,3.53,4.52,4.52,0,0,1-2.2.37,4.27,4.27,0,0,1-2.18-.85,4.36,4.36,0,0,1-1.5-1.83,4.36,4.36,0,0,1,.47-4.31Z"/><path class="cls-123" d="M826.38,770.94l25.52,7.62L848,783.25l-22.52-6.84,2.31-2.76,10.59,21.08L834.73,799l-11.94-23.81Z"/><path class="cls-124" d="M806.54,792.64a15,15,0,0,1,4.38-3.23,12.59,12.59,0,0,1,4.87-1.25,11.77,11.77,0,0,1,4.83.75,13.09,13.09,0,0,1,7.28,6.94,11.87,11.87,0,0,1,1,4.8,12.94,12.94,0,0,1-1,4.92,15.5,15.5,0,0,1-7.34,7.7,12.85,12.85,0,0,1-4.83,1.22,12.47,12.47,0,0,1-4.84-.72,12.25,12.25,0,0,1-4.35-2.75,12.52,12.52,0,0,1-3-4.21,12.19,12.19,0,0,1-1-4.81,12.91,12.91,0,0,1,1-4.88A14.7,14.7,0,0,1,806.54,792.64Zm3.52,3.3a7.81,7.81,0,0,0-1.68,2.57,7.23,7.23,0,0,0-.52,2.87,7.32,7.32,0,0,0,.68,2.88,9.06,9.06,0,0,0,4.6,4.39,7.54,7.54,0,0,0,2.9.55,7.05,7.05,0,0,0,2.84-.65,8.14,8.14,0,0,0,2.5-1.81,7.85,7.85,0,0,0,1.68-2.58,7,7,0,0,0,.51-2.86,7.22,7.22,0,0,0-.67-2.89,8.46,8.46,0,0,0-1.9-2.61,8.56,8.56,0,0,0-2.69-1.76,7.32,7.32,0,0,0-2.92-.56,6.88,6.88,0,0,0-2.83.65A7.87,7.87,0,0,0,810.06,795.94Z"/><path class="cls-125" d="M785.78,812.94a14.86,14.86,0,0,1,4.6-2.91,12.6,12.6,0,0,1,4.94-.91,12,12,0,0,1,4.77,1.08,12.62,12.62,0,0,1,4.12,3,12.45,12.45,0,0,1,2.65,4.39,11.82,11.82,0,0,1,.63,4.86,12.79,12.79,0,0,1-1.36,4.83,15.46,15.46,0,0,1-7.86,7.17,12.72,12.72,0,0,1-4.91.88,12.21,12.21,0,0,1-8.92-4.1,12.57,12.57,0,0,1-2.65-4.42,12.08,12.08,0,0,1-.63-4.86,12.92,12.92,0,0,1,1.35-4.8A14.55,14.55,0,0,1,785.78,812.94Zm3.27,3.54a8.09,8.09,0,0,0-1.85,2.45,7.08,7.08,0,0,0-.71,2.82,7.27,7.27,0,0,0,.47,2.93,9,9,0,0,0,4.28,4.7,7.73,7.73,0,0,0,2.86.75,7.13,7.13,0,0,0,2.88-.45A8.21,8.21,0,0,0,799.6,828a7.67,7.67,0,0,0,1.85-2.45,7.26,7.26,0,0,0,.72-2.82,7.46,7.46,0,0,0-.48-2.93,8.52,8.52,0,0,0-1.71-2.73,8.43,8.43,0,0,0-2.56-2,7.26,7.26,0,0,0-2.87-.76,6.76,6.76,0,0,0-2.87.45A8,8,0,0,0,789.05,816.48Z"/><path class="cls-126" d="M773.13,824.66l15.36,19-4.41,3.55L771.62,831.8l-9.54,7.7-2.89-3.59Z"/><path class="cls-127" d="M759.42,835.86l5.39,26.22-4.54,3.26-23.13-13.5,4.82-3.46,19.85,12.33L760,862l-5.28-22.77ZM758,843.29l1.29,4.37L749.11,855l-3.76-2.6Z"/><path class="cls-128" d="M726.88,864.49a4.29,4.29,0,0,1,2.16-.65,4.5,4.5,0,0,1,2.18.5,4.44,4.44,0,0,1,1.7,1.64,4.27,4.27,0,0,1,.68,2.25,4.4,4.4,0,0,1-6.42,3.95,4.32,4.32,0,0,1-1.7-1.62,4.34,4.34,0,0,1-.16-4.43A4.23,4.23,0,0,1,726.88,864.49Z"/><path class="cls-129" d="M708.09,869.48l11.25,21.7-9.86,5.12a15.43,15.43,0,0,1-6.93,1.88,11.61,11.61,0,0,1-6.17-1.58,13,13,0,0,1-5.94-11.46,11.58,11.58,0,0,1,2.25-6,15.56,15.56,0,0,1,5.54-4.58Zm-2.89,6.73-4.59,2.38a9.19,9.19,0,0,0-3.34,2.77A6.68,6.68,0,0,0,696,885a7.73,7.73,0,0,0,1,4,7.84,7.84,0,0,0,2.74,3.13,6.85,6.85,0,0,0,3.69,1,9.21,9.21,0,0,0,4.19-1.14l4.59-2.38Z"/><path class="cls-130" d="M679.38,888.79l-12.17,5.37L665.37,890l17.32-7.65,9.88,22.37-16.9,7.46L673.83,908l11.76-5.19Zm4.45,9-10.77,4.76-1.78-4,10.77-4.75Z"/><path class="cls-131" d="M650.4,895.27a14.6,14.6,0,0,1,5.24-1,12.54,12.54,0,0,1,4.87,1,12.22,12.22,0,0,1,4,2.8,13.27,13.27,0,0,1,3.54,9.49,12.13,12.13,0,0,1-1.21,4.74,12.62,12.62,0,0,1-3,3.94A15.56,15.56,0,0,1,653.43,920a11.15,11.15,0,0,1-5.17-1.53l2.23-4.41a8.38,8.38,0,0,0,3.37,1,7.85,7.85,0,0,0,3.39-.5,8.59,8.59,0,0,0,2.75-1.62,7,7,0,0,0,1.76-2.37,7.45,7.45,0,0,0,.66-2.89,8.31,8.31,0,0,0-.57-3.18,8.48,8.48,0,0,0-1.65-2.78,7.3,7.3,0,0,0-2.39-1.76,7.21,7.21,0,0,0-2.88-.64,8.7,8.7,0,0,0-3.15.58,8,8,0,0,0-2.89,1.84,8.33,8.33,0,0,0-1.85,3l-4.58-1.87a11.39,11.39,0,0,1,2.91-4.55A14.28,14.28,0,0,1,650.4,895.27Z"/><path class="cls-132" d="M633.74,906.21,621,910.11l-1.34-4.34,18.1-5.55L645,923.59,627.29,929,626,924.67l12.29-3.77Zm3.35,9.49-11.25,3.46L624.55,915l11.25-3.46Z"/><path class="cls-133" d="M615.69,906.9l5.71,23.77-4.55,1.1L598.71,918l2.21-.53L605,934.61l-5.43,1.3-5.71-23.77,4.51-1.09,18.17,13.74-2.2.53-4.11-17.11Z"/><path class="cls-134" d="M583.54,914,587,933.57l7.7-1.37.81,4.54-21,3.73-.8-4.54,7.7-1.37L578,915Z"/><path class="cls-135" d="M552.14,918.63l7.13,8.08-6,.72-7.2-8.07Zm15.43-1.85,2.91,24.27L560,942.31a13.72,13.72,0,0,1-5.75-.38,8.23,8.23,0,0,1-4-2.6,8.45,8.45,0,0,1-1.85-4.56,8.35,8.35,0,0,1,.72-4.82,8.26,8.26,0,0,1,3.28-3.44,14,14,0,0,1,5.5-1.71l7.38-.89-2.2,2.77-1.1-9.23ZM563,926.05l2.81,2.34-7.08.85a5.74,5.74,0,0,0-3.74,1.59,4.43,4.43,0,0,0,.74,6.22,5.84,5.84,0,0,0,4,.65l7.07-.85-2.17,3Z"/><path class="cls-136" d="M545.63,919.46l-9.48,25-5.58.32L518.26,921l5.92-.34,10.16,21-2.23.13,7.73-22.06ZM540.49,925l-1.25,4.37-12.56.72-1.78-4.2Z"/><path class="cls-137" d="M516.11,920.79l.39,24.45-5.65.09-.33-19.83-12.25.19-.08-4.61Z"/><path class="cls-138" d="M495.16,920.73l-.91,24.43-5.66-.21.92-24.43Z"/><path class="cls-139" d="M485.52,920.44l-.29,3.66-16.51,17-.54-2.11,15.5,1.22-.36,4.6-20.51-1.62.29-3.66,16.47-17,.53,2.11-16.26-1.28.37-4.6Z"/><path class="cls-140" d="M454.74,922.1l-13.19-1.78.61-4.5,18.76,2.53-3.27,24.23-18.31-2.47.6-4.5,12.74,1.72Zm-.93,10-11.67-1.57.59-4.37,11.67,1.58Z"/><path class="cls-141" d="M438.09,915.18l-4.79,24L422.41,937a15.48,15.48,0,0,1-6.59-2.86A11.64,11.64,0,0,1,412,929a13,13,0,0,1,2.53-12.65,11.61,11.61,0,0,1,5.49-3.25,15.44,15.44,0,0,1,7.18-.12Zm-6.46,3.45-5.07-1a9.31,9.31,0,0,0-4.35.08,6.7,6.7,0,0,0-3.25,2,8.67,8.67,0,0,0-1.58,7.9,6.74,6.74,0,0,0,2.23,3.11,9.19,9.19,0,0,0,4,1.74l5.07,1Z"/><path class="cls-142" d="M400.78,907l-7,23.43-10.64-3.18a15.51,15.51,0,0,1-6.29-3.46,11.58,11.58,0,0,1-3.34-5.43A13,13,0,0,1,377.2,906a11.6,11.6,0,0,1,5.77-2.72,15.54,15.54,0,0,1,7.17.55ZM394,909.84l-5-1.47a9.08,9.08,0,0,0-4.33-.33,6.75,6.75,0,0,0-3.43,1.72,7.94,7.94,0,0,0-2.1,3.57,7.71,7.71,0,0,0-.2,4.15,6.76,6.76,0,0,0,1.92,3.31,9.28,9.28,0,0,0,3.81,2.1l4.95,1.48Z"/><path class="cls-143" d="M373.5,898.51l-8.13,23.06L360,919.69l8.12-23.06Z"/><path class="cls-144" d="M352.15,890a14.74,14.74,0,0,1,4.59,2.85,12.71,12.71,0,0,1,2.93,4,12.22,12.22,0,0,1,1.08,4.78,12.58,12.58,0,0,1-1,5.06,12.43,12.43,0,0,1-2.83,4.32,11.86,11.86,0,0,1-4.11,2.67,12.76,12.76,0,0,1-4.94.85,16.32,16.32,0,0,1-10.35-4.37,11.6,11.6,0,0,1-2.88-4.56l4.62-1.74a8.92,8.92,0,0,0,1.91,3,8.35,8.35,0,0,0,2.92,1.92,8.91,8.91,0,0,0,3.22.7,7.16,7.16,0,0,0,5.4-2.22,9,9,0,0,0,2.38-5.86,7.48,7.48,0,0,0-.59-2.93,7.13,7.13,0,0,0-1.72-2.45,8.75,8.75,0,0,0-2.75-1.72,10.24,10.24,0,0,0-3.23-.72,9.6,9.6,0,0,0-3.56.54l-1.44-5a14.62,14.62,0,0,1,5.16-.4A17.69,17.69,0,0,1,352.15,890Zm-5.81,1.79-3.45,8.51-4.79-1.94,3.72-9.19Z"/><path class="cls-145" d="M338.35,884.55l-10.22,22.21L323,904.4l10.22-22.22Z"/><path class="cls-146" d="M323.63,877.55l-9,17.68,7,3.55-2.09,4.11-19-9.66,2.09-4.11,7,3.55,9-17.69Z"/><path class="cls-147" d="M313.09,872.33,291.39,888l-4.83-2.8,2.81-26.64,5.14,3-3.1,23.16-1.93-1.12,18.59-14.17Zm-7.34,1.8-3.46,3-10.88-6.31.83-4.49Z"/><path class="cls-148" d="M287.56,857.25l-13.45,20.41-4.73-3.11L280.3,858l-10.24-6.75,2.54-3.85Z"/><path class="cls-149" d="M253.41,832.52a14.49,14.49,0,0,1,3.57,4,12.24,12.24,0,0,1,1.43,9.54,12.88,12.88,0,0,1-2.33,4.61,12.7,12.7,0,0,1-3.9,3.38,12.12,12.12,0,0,1-4.67,1.45,12.63,12.63,0,0,1-4.94-.51A15.53,15.53,0,0,1,234,848a11.23,11.23,0,0,1-1.42-5.2l4.93-.41a8.46,8.46,0,0,0,.88,3.41,7.89,7.89,0,0,0,2.21,2.63A8.55,8.55,0,0,0,243.4,850a7.25,7.25,0,0,0,2.95.26,7.41,7.41,0,0,0,2.8-1,8.56,8.56,0,0,0,2.41-2.16,8.39,8.39,0,0,0,1.5-2.86,7.41,7.41,0,0,0,.24-3,7,7,0,0,0-1-2.79,8.64,8.64,0,0,0-2.13-2.38,7.9,7.9,0,0,0-3.09-1.49,8.44,8.44,0,0,0-3.54,0l-.81-4.87a11.34,11.34,0,0,1,5.4.08A14.4,14.4,0,0,1,253.41,832.52Z"/><path class="cls-150" d="M234.81,817q3.88,3.45,4.17,7.56c.18,2.75-.92,5.46-3.29,8.15L226.61,843l-4.24-3.75,8.94-10.1q2.33-2.61,2.26-4.71a6,6,0,0,0-6-5.33c-1.39.14-2.86,1.07-4.41,2.82L214.22,832l-4.19-3.7L219.11,818c2.37-2.69,4.94-4.11,7.68-4.26S232.21,814.69,234.81,817Z"/><path class="cls-151" d="M222.46,806.35l-17.33,17.24-7.47-7.5a13.74,13.74,0,0,1-3.23-4.76,8.16,8.16,0,0,1-.42-4.75,8.53,8.53,0,0,1,2.45-4.27,8.42,8.42,0,0,1,4.24-2.4,8.2,8.2,0,0,1,4.73.47,14.06,14.06,0,0,1,4.74,3.27l5.24,5.27-3.53,0,6.59-6.55Zm-10.13,2.1-.11,3.65-5-5.05a5.79,5.79,0,0,0-3.56-2,4.44,4.44,0,0,0-4.44,4.42,5.82,5.82,0,0,0,2,3.56l5,5.05-3.68.12Zm-.83-13.12-2,10.59-4.26-4.28L207.18,791Z"/><path class="cls-152" d="M204.72,788.29l-18.34,16.16-7-7.94a13.89,13.89,0,0,1-2.94-5,8.28,8.28,0,0,1-.13-4.77,9.29,9.29,0,0,1,7.09-6.25,8.21,8.21,0,0,1,4.69.76,14.07,14.07,0,0,1,4.53,3.55l4.92,5.59-3.53-.25,7-6.14Zm-10.24,1.48-.33,3.64-4.7-5.34a5.83,5.83,0,0,0-3.44-2.19A4.46,4.46,0,0,0,181.3,790a5.89,5.89,0,0,0,1.75,3.68l4.71,5.35-3.68-.11Zm0-13.14-2.62,10.45-4-4.54,2.57-10.5Z"/><path class="cls-153" d="M181.08,767.52,172.88,757l3.58-2.8,11.66,14.91-19.26,15.06-11.38-14.55,3.58-2.8L169,777Zm-7.66,6.53-7.25-9.28,3.46-2.71,7.25,9.27Z"/><path class="cls-154" d="M174,750.91l-20.14,13.85-2.66-3.86L157.51,739l1.29,1.87-14.51,10-3.17-4.6,20.15-13.85,2.63,3.83-6.31,21.88-1.29-1.87,14.51-10Z"/><path class="cls-155" d="M152.75,717.58a14.63,14.63,0,0,1,1.9,5,12.25,12.25,0,0,1-2.13,9.41,12.58,12.58,0,0,1-3.84,3.45,12.73,12.73,0,0,1-4.86,1.74,12,12,0,0,1-4.88-.34,12.59,12.59,0,0,1-4.43-2.26,14.76,14.76,0,0,1-3.49-4.06,14.25,14.25,0,0,1-2-5.5,11.21,11.21,0,0,1,.56-5.36l4.74,1.41a8.41,8.41,0,0,0-.41,3.5,7.91,7.91,0,0,0,1.1,3.24,8.69,8.69,0,0,0,2.09,2.42,7.28,7.28,0,0,0,2.65,1.3,7.4,7.4,0,0,0,3,.13,8.43,8.43,0,0,0,3-1.14,8.26,8.26,0,0,0,2.43-2.12,7.21,7.21,0,0,0,1.3-2.67,7.13,7.13,0,0,0,.11-3,8.51,8.51,0,0,0-1.13-3,7.92,7.92,0,0,0-2.33-2.51,8.46,8.46,0,0,0-3.31-1.28l1-4.84a11.54,11.54,0,0,1,5,2A14.46,14.46,0,0,1,152.75,717.58Z"/><path class="cls-156" d="M142.91,700.87l-8.86,4.61,2.44-2.72-10.9,17.79-2.77-5.33,8.37-13.64,1.6,3.06-16-1-2.56-4.92L135.06,700l-3.62.46,8.86-4.61Z"/><path class="cls-157" d="M129.38,685.69a4.31,4.31,0,0,1,.4,2.22A4.36,4.36,0,0,1,129,690a4.46,4.46,0,0,1-1.82,1.51,4.37,4.37,0,0,1-2.31.43,4.59,4.59,0,0,1-2.08-.78,4.37,4.37,0,0,1-1.45-1.73,4.32,4.32,0,0,1-.41-2.22,4.45,4.45,0,0,1,.73-2.1,4.46,4.46,0,0,1,6.23-1.17A4.3,4.3,0,0,1,129.38,685.69Z"/><path class="cls-158" d="M123.92,659.6l-19,18.66-2.21-5.7,16.87-16.41,1.3,3.35-23.57-.91-2-5.25,26.62,1Z"/><path class="cls-159" d="M114.53,631.75a15,15,0,0,1,.7,5.39A12.75,12.75,0,0,1,114,642a11.92,11.92,0,0,1-3,3.86,12.44,12.44,0,0,1-4.5,2.46,12.68,12.68,0,0,1-5.1.56,12.17,12.17,0,0,1-4.67-1.48,13.16,13.16,0,0,1-3.81-3.27A15.53,15.53,0,0,1,89.71,634,12.89,12.89,0,0,1,91,629.16a12.75,12.75,0,0,1,12.6-6.9,12.06,12.06,0,0,1,4.68,1.48A12.65,12.65,0,0,1,112,627,14.63,14.63,0,0,1,114.53,631.75Zm-4.59,1.47a8,8,0,0,0-1.44-2.71,7.3,7.3,0,0,0-2.26-1.84,7.49,7.49,0,0,0-2.85-.8,8.44,8.44,0,0,0-3.21.4,8.55,8.55,0,0,0-2.86,1.5,7.45,7.45,0,0,0-1.88,2.28,7,7,0,0,0-.81,2.79,8.53,8.53,0,0,0,1.82,5.79,7.32,7.32,0,0,0,5.11,2.64,8.61,8.61,0,0,0,3.2-.4,8.8,8.8,0,0,0,2.85-1.5,7.61,7.61,0,0,0,1.9-2.28,7,7,0,0,0,.8-2.8A8.22,8.22,0,0,0,109.94,633.22Z"/><path class="cls-160" d="M106.82,603.76a14.61,14.61,0,0,1,.32,5.43,12.7,12.7,0,0,1-1.59,4.76,12.26,12.26,0,0,1-3.27,3.65,13.17,13.17,0,0,1-9.78,2.32,12,12,0,0,1-4.56-1.8,13.06,13.06,0,0,1-3.57-3.54,15.52,15.52,0,0,1-2.46-10.34,12.88,12.88,0,0,1,1.61-4.73,12.76,12.76,0,0,1,13.06-6,12.1,12.1,0,0,1,4.56,1.81,12.67,12.67,0,0,1,3.54,3.5A14.37,14.37,0,0,1,106.82,603.76Zm-4.68,1.15a7.9,7.9,0,0,0-1.24-2.81,7.34,7.34,0,0,0-4.91-3,8.3,8.3,0,0,0-3.23.17,8.39,8.39,0,0,0-3,1.3,7.37,7.37,0,0,0-2,2.13,6.91,6.91,0,0,0-1,2.74,7.89,7.89,0,0,0,.16,3.08,7.8,7.8,0,0,0,1.24,2.81,7.28,7.28,0,0,0,4.91,3,8.51,8.51,0,0,0,3.23-.17,8.71,8.71,0,0,0,2.94-1.29,7.51,7.51,0,0,0,2.06-2.15,7,7,0,0,0,1-2.73A8.08,8.08,0,0,0,102.14,604.91Z"/><path class="cls-161" d="M102.71,587l-24.08,4.2-1-5.58,19.54-3.4-2.1-12.08,4.54-.79Z"/><path class="cls-162" d="M99.57,569.6l-25.53-8L73.39,556l23-13.67.68,5.9L76.69,559.62l-.25-2.22,22.47,6.44Zm-5.83-4.81-4.44-1L87.86,551.3l4.09-2Z"/><path class="cls-163" d="M90.34,527.22a4.19,4.19,0,0,1-.48,2.21,4.28,4.28,0,0,1-3.75,2.35,4.36,4.36,0,0,1-4.6-4.16,4.39,4.39,0,0,1,.48-2.21,4.44,4.44,0,0,1,1.48-1.65,4.28,4.28,0,0,1,2.25-.7,4.41,4.41,0,0,1,2.31.49,4.36,4.36,0,0,1,1.64,1.52A4.23,4.23,0,0,1,90.34,527.22Z"/><path class="cls-164" d="M95.1,508.38l-24.44-.66.3-11.1a15.6,15.6,0,0,1,1.7-7A11.69,11.69,0,0,1,77,485a13,13,0,0,1,12.91.35,11.62,11.62,0,0,1,4.13,4.86,15.47,15.47,0,0,1,1.33,7.06Zm-4.49-5.78.14-5.17a9.29,9.29,0,0,0-.81-4.27,6.72,6.72,0,0,0-2.57-2.86,8.66,8.66,0,0,0-8-.22,6.82,6.82,0,0,0-2.7,2.73,9.23,9.23,0,0,0-1,4.22l-.14,5.16Z"/><path class="cls-165" d="M92.09,473.9l1.18-13.25,4.52.4-1.68,18.86-24.35-2.17,1.64-18.4,4.52.4-1.14,12.8ZM82,473.43l1-11.72,4.39.39-1,11.72Z"/><path class="cls-166" d="M100.42,445.4a14.68,14.68,0,0,1-1.69,5.06,12.23,12.23,0,0,1-7.61,5.94,13.39,13.39,0,0,1-10-1.49,12.11,12.11,0,0,1-3.56-3.35,12.59,12.59,0,0,1-2-4.55,15.57,15.57,0,0,1,1.79-10.88,11.17,11.17,0,0,1,3.82-3.79L84,436.42a8.64,8.64,0,0,0-2.54,2.45,7.81,7.81,0,0,0-1.19,3.22,8.49,8.49,0,0,0,.09,3.19A7.16,7.16,0,0,0,81.53,448a7.4,7.4,0,0,0,2.22,2,9.13,9.13,0,0,0,6.29.93,7.38,7.38,0,0,0,2.69-1.25,7.05,7.05,0,0,0,2-2.21,8.41,8.41,0,0,0,1-3,7.82,7.82,0,0,0-.21-3.42,8.38,8.38,0,0,0-1.75-3.09l3.85-3.1a11.45,11.45,0,0,1,2.58,4.74A14.56,14.56,0,0,1,100.42,445.4Z"/><path class="cls-167" d="M98.88,425.53l2.72-13,4.44.92L102.18,432l-23.94-5L82,408.88l4.44.93-2.62,12.58ZM89,423.89l2.4-11.53,4.31.9-2.4,11.53Z"/><path class="cls-168" d="M107,409.39l-23.58-6.47,1.24-4.52,20.79-9.25-.6,2.19-17-4.66,1.48-5.39,23.57,6.48-1.23,4.48-20.8,9.28.6-2.19,17,4.66Z"/><path class="cls-169" d="M116.25,377.78l-18.78-6.39L95,378.8l-4.36-1.48,6.86-20.17,4.36,1.48L99.29,366l18.78,6.39Z"/><path class="cls-170" d="M121.56,362.5l-22.67-9.18,4-9.81a13.58,13.58,0,0,1,3.11-4.84,8.25,8.25,0,0,1,4.21-2.25,8.51,8.51,0,0,1,4.88.58,8,8,0,0,1,5.3,7.49,13.89,13.89,0,0,1-1.16,5.64l-2.79,6.9-1.35-3.26,8.61,3.48Zm-5.91-8.5-3.4,1.34,2.67-6.61a5.81,5.81,0,0,0,.42-4.05,4,4,0,0,0-2.42-2.37,3.9,3.9,0,0,0-3.39,0,5.87,5.87,0,0,0-2.51,3.2l-2.67,6.61-1.55-3.34Zm11.74-5.91-10.52,2.34,2.27-5.6,10.54-2.4Z"/><path class="cls-171" d="M129.81,342l-17.32-20.4,2.41-5,26.78.73-2.57,5.35-23.33-1.28,1-2,15.57,17.44Zm-2.37-7.18-3.22-3.21,5.44-11.33,4.54.47Z"/><path class="cls-172" d="M142.85,315.39l-21.4-11.83,2.74-4.95,17.36,9.59,5.93-10.72,4,2.23Z"/><path class="cls-173" d="M153.12,297.23,132.2,284.57l2.93-4.84,20.92,12.66Z"/><path class="cls-174" d="M158.05,288.94l-3.06-2-6.83-22.68,2.1.56-8.59,12.95-3.84-2.55,11.37-17.14,3.05,2,6.86,22.65-2.11-.56,9-13.59,3.84,2.54Z"/><path class="cls-175" d="M171.55,261.22l8-10.66,3.64,2.71-11.33,15.17-19.59-14.63L163.29,239l3.64,2.72L159.24,252Zm-8.31-5.68,7-9.43,3.53,2.63-7,9.43Z"/><path class="cls-176" d="M185.7,250l-18.64-15.81,7.18-8.47a15.49,15.49,0,0,1,5.7-4.37,11.66,11.66,0,0,1,6.31-.88,13,13,0,0,1,9.84,8.35,11.5,11.5,0,0,1,.18,6.38,15.65,15.65,0,0,1-3.38,6.34Zm.12-7.32,3.34-3.94a9,9,0,0,0,2-3.83,6.69,6.69,0,0,0-.2-3.84,8.63,8.63,0,0,0-6.14-5.21,6.72,6.72,0,0,0-3.8.44,9,9,0,0,0-3.45,2.64l-3.35,3.94Z"/><path class="cls-177" d="M210.94,221.34l-17.11-17.46,7.93-7.78a15.55,15.55,0,0,1,6.08-3.83,11.61,11.61,0,0,1,6.36-.29,13,13,0,0,1,9,9.22,11.5,11.5,0,0,1-.41,6.37,15.5,15.5,0,0,1-3.95,6Zm.79-7.28,3.69-3.62a9.14,9.14,0,0,0,2.38-3.63A6.62,6.62,0,0,0,218,203a8.67,8.67,0,0,0-5.63-5.75,6.76,6.76,0,0,0-3.83.09,9.11,9.11,0,0,0-3.68,2.31l-3.69,3.61Z"/><path class="cls-178" d="M231.58,201.59l-16.26-18.26,4.23-3.76,16.25,18.26Z"/><path class="cls-179" d="M249.34,187a14.81,14.81,0,0,1-4.72,2.63,12.42,12.42,0,0,1-5,.62,12.06,12.06,0,0,1-4.7-1.36,13.37,13.37,0,0,1-6.38-7.86,12.06,12.06,0,0,1-.35-4.89,12.67,12.67,0,0,1,1.65-4.74,16.25,16.25,0,0,1,8.82-7,11.58,11.58,0,0,1,5.38-.32l-.7,4.89a9.15,9.15,0,0,0-3.57.21,8.58,8.58,0,0,0-3.08,1.63,9.12,9.12,0,0,0-2.17,2.48,7.13,7.13,0,0,0-.67,5.81,9,9,0,0,0,4,4.91,7.49,7.49,0,0,0,2.84.9,7.21,7.21,0,0,0,3-.32,8.78,8.78,0,0,0,2.83-1.58,10.21,10.21,0,0,0,2.2-2.48,9.44,9.44,0,0,0,1.24-3.37l5.07,1.14a14.61,14.61,0,0,1-2.14,4.71A18.24,18.24,0,0,1,249.34,187Zm1.24-6-5.79-7.13,4-3.26,6.25,7.7Z"/><path class="cls-180" d="M260.8,177.55l-14.53-19.67,4.56-3.36,14.52,19.66Z"/><path class="cls-181" d="M274,168.05l-11.15-16.41L256.39,156l-2.59-3.81,17.62-12,2.59,3.81-6.47,4.4,11.15,16.41Z"/><path class="cls-182" d="M283.68,161.32l-3.27-26.57,4.79-2.88,22,15.3-5.08,3.07-18.8-13.88,1.92-1.16,3.44,23.13Zm2-7.3-.93-4.46,10.77-6.48L299,146Z"/><path class="cls-183" d="M309.2,146.23,297.8,124.6l5-2.64,9.24,17.56,10.85-5.72,2.15,4.08Z"/><path class="cls-184" d="M347.34,128.25a14.64,14.64,0,0,1-5.19,1.22,12.38,12.38,0,0,1-4.91-.76,12.19,12.19,0,0,1-4.13-2.6,12.49,12.49,0,0,1-2.91-4.26,12.67,12.67,0,0,1-1.09-5,12.22,12.22,0,0,1,1-4.79,12.63,12.63,0,0,1,2.83-4.09,14.74,14.74,0,0,1,4.48-2.93,14.53,14.53,0,0,1,5.72-1.25,11.25,11.25,0,0,1,5.23,1.27l-2,4.51a8.74,8.74,0,0,0-3.42-.87,7.85,7.85,0,0,0-3.36.67,8.36,8.36,0,0,0-2.67,1.75,7.16,7.16,0,0,0-1.65,2.45,7.34,7.34,0,0,0-.51,2.92,9,9,0,0,0,2.5,5.84,7.17,7.17,0,0,0,2.47,1.64,7,7,0,0,0,2.91.5,8.42,8.42,0,0,0,3.11-.72,7.82,7.82,0,0,0,2.8-2,8.15,8.15,0,0,0,1.71-3.11l4.66,1.65a11.38,11.38,0,0,1-2.68,4.69A14.43,14.43,0,0,1,347.34,128.25Z"/><path class="cls-185" d="M369.93,119.47q-4.9,1.74-8.64,0t-5.54-6.82l-4.58-12.9,5.33-1.89,4.52,12.7c.77,2.2,1.79,3.62,3,4.26a6,6,0,0,0,7.57-2.69q.83-1.92-.34-5.22l-4.51-12.7L372,92.33l4.59,12.9q1.8,5.07,0,8.78T369.93,119.47Z"/><path class="cls-186" d="M385.19,113.81,378.5,90.3l10.18-2.9a13.69,13.69,0,0,1,5.73-.52,8.18,8.18,0,0,1,4.36,1.93A8.55,8.55,0,0,1,401.32,93a8.37,8.37,0,0,1,0,4.88,8.27,8.27,0,0,1-2.7,3.91,13.88,13.88,0,0,1-5.15,2.55l-7.16,2,1.74-3.07,2.55,8.93Zm3.07-9.88-3.14-1.86,6.85-1.95A5.77,5.77,0,0,0,395.42,98a4.44,4.44,0,0,0-1.72-6,5.83,5.83,0,0,0-4.06,0l-6.86,2,1.69-3.27Zm11.88,5.63-8.31-6.86,5.82-1.66,8.37,6.84Z"/><path class="cls-187" d="M409.59,107l-5.23-23.88,10.33-2.27a13.82,13.82,0,0,1,5.76-.17,8.36,8.36,0,0,1,4.24,2.2A8.62,8.62,0,0,1,427,87.29a8.44,8.44,0,0,1-.26,4.86,8.21,8.21,0,0,1-2.94,3.74,14,14,0,0,1-5.3,2.23l-7.27,1.59,1.93-3,2,9.08Zm3.67-9.67-3-2.06,7-1.52a5.82,5.82,0,0,0,3.58-2,4,4,0,0,0,.59-3.33,3.9,3.9,0,0,0-1.94-2.79,5.83,5.83,0,0,0-4.06-.26l-7,1.53,1.88-3.17Zm11.51,6.34-7.87-7.35,5.9-1.3,7.94,7.35Z"/><path class="cls-188" d="M439.21,96.45l13.15-2.08.71,4.48-18.7,3-3.82-24.15,18.25-2.88.71,4.48-12.7,2Zm-2-9.87,11.63-1.84.68,4.35-11.62,1.83Z"/><path class="cls-189" d="M457.18,98.3,454.86,74l4.66-.44,16,16.15-2.26.22-1.67-17.53,5.56-.53,2.32,24.34-4.62.44L458.81,80.46l2.26-.21,1.67,17.52Z"/><path class="cls-190" d="M496.63,95.92a14.47,14.47,0,0,1-5.28-.76,12.23,12.23,0,0,1-7.2-6.43,12.67,12.67,0,0,1-1.15-5,12.48,12.48,0,0,1,.84-5.09,12.08,12.08,0,0,1,2.66-4.11,12.53,12.53,0,0,1,4.13-2.76,15.45,15.45,0,0,1,11-.18,11.17,11.17,0,0,1,4.41,3.1l-3.53,3.46a8.46,8.46,0,0,0-2.86-2.06,8,8,0,0,0-3.37-.61,8.78,8.78,0,0,0-3.13.66,7,7,0,0,0-2.42,1.68,7.44,7.44,0,0,0-1.55,2.53,8.5,8.5,0,0,0-.47,3.2,8.4,8.4,0,0,0,.67,3.16,7.5,7.5,0,0,0,1.7,2.43,7.22,7.22,0,0,0,2.53,1.52,8.35,8.35,0,0,0,3.16.46,7.72,7.72,0,0,0,3.33-.82A8.16,8.16,0,0,0,502.84,88l3.74,3.24a11.31,11.31,0,0,1-4.21,3.38A14.36,14.36,0,0,1,496.63,95.92Z"/><path class="cls-191" d="M516,95.42l.26-10,1.2,3.46L507.18,70.73l6,.16,7.89,13.93-3.45-.09,8.62-13.51,5.55.14L520.58,89l1.35-3.39-.26,10Z"/><path class="cls-192" d="M546.83,91.78a4.25,4.25,0,0,1-2.12-.77,4.34,4.34,0,0,1-1.44-1.71,4.41,4.41,0,0,1-.38-2.33,4.24,4.24,0,0,1,.8-2.21,4.43,4.43,0,0,1,1.72-1.4,4.24,4.24,0,0,1,2.23-.38,4.3,4.3,0,0,1,2.12.78,4.45,4.45,0,0,1,1.44,1.69,4.68,4.68,0,0,1-.42,4.54,4.39,4.39,0,0,1-1.72,1.42A4.34,4.34,0,0,1,546.83,91.78Z"/></g></g></svg>